<mxfile host="Electron" modified="2024-04-29T22:10:40.726Z" agent="Mozilla/5.0 (Windows NT 10.0; Win64; x64) AppleWebKit/537.36 (KHTML, like Gecko) draw.io/23.1.5 Chrome/120.0.6099.109 Electron/28.1.0 Safari/537.36" etag="TnQXqA3bS4npvCQGuapY" version="23.1.5" type="device">
  <diagram name="Page-1" id="D4jjd653WhLHZPP0HxEm">
    <mxGraphModel dx="2673" dy="3266" grid="1" gridSize="10" guides="1" tooltips="1" connect="1" arrows="1" fold="1" page="1" pageScale="1" pageWidth="827" pageHeight="1169" math="0" shadow="0">
      <root>
        <mxCell id="0" />
        <mxCell id="1" parent="0" />
        <mxCell id="g6qgAH0g6jWnOgv-mpRu-280" value="Kurzus" style="html=1;dashed=0;whitespace=wrap;shape=mxgraph.dfd.dataStoreID2;align=left;spacingLeft=38;container=1;collapsible=0;flipH=0;" parent="1" vertex="1">
          <mxGeometry x="1609.67" y="-820" width="120" height="30" as="geometry" />
        </mxCell>
        <mxCell id="g6qgAH0g6jWnOgv-mpRu-281" value="L2" style="text;html=1;strokeColor=none;fillColor=none;align=center;verticalAlign=middle;whiteSpace=wrap;rounded=0;connectable=0;allowArrows=0;movable=0;resizable=0;rotatable=0;cloneable=0;deletable=0;" parent="g6qgAH0g6jWnOgv-mpRu-280" vertex="1">
          <mxGeometry x="5" width="30" height="30" as="geometry" />
        </mxCell>
        <mxCell id="g6qgAH0g6jWnOgv-mpRu-282" value="" style="html=1;dashed=0;whitespace=wrap;shape=mxgraph.dfd.process;align=center;container=1;collapsible=0;spacingTop=30;" parent="1" vertex="1">
          <mxGeometry x="1269.67" y="-1060" width="290" height="583.2906" as="geometry" />
        </mxCell>
        <mxCell id="g6qgAH0g6jWnOgv-mpRu-283" value="1" style="text;html=1;strokeColor=none;fillColor=none;align=center;verticalAlign=middle;whiteSpace=wrap;rounded=0;movable=0;resizable=0;rotatable=0;cloneable=0;deletable=0;connectable=0;allowArrows=0;pointerEvents=1;" parent="g6qgAH0g6jWnOgv-mpRu-282" vertex="1">
          <mxGeometry width="35" height="30" as="geometry" />
        </mxCell>
        <mxCell id="g6qgAH0g6jWnOgv-mpRu-284" value="Kurzusok" style="text;html=1;strokeColor=none;fillColor=none;align=left;verticalAlign=middle;whiteSpace=wrap;rounded=0;movable=0;resizable=0;connectable=0;allowArrows=0;rotatable=0;cloneable=0;deletable=0;spacingLeft=6;autosize=1;resizeWidth=0;" parent="g6qgAH0g6jWnOgv-mpRu-282" vertex="1">
          <mxGeometry x="35" width="80" height="30" as="geometry" />
        </mxCell>
        <mxCell id="g6qgAH0g6jWnOgv-mpRu-285" value="Kurzus létrehozása" style="html=1;dashed=0;whitespace=wrap;shape=mxgraph.dfd.process2;align=center;container=1;collapsible=0;spacingTop=30;" parent="g6qgAH0g6jWnOgv-mpRu-282" vertex="1">
          <mxGeometry x="65" y="49.99939999999999" width="160" height="73.2906" as="geometry" />
        </mxCell>
        <mxCell id="g6qgAH0g6jWnOgv-mpRu-286" value="1.1" style="text;html=1;strokeColor=none;fillColor=none;align=center;verticalAlign=middle;whiteSpace=wrap;rounded=0;connectable=0;allowArrows=0;editable=1;movable=0;resizable=0;rotatable=0;deletable=0;locked=0;cloneable=0;" parent="g6qgAH0g6jWnOgv-mpRu-285" vertex="1">
          <mxGeometry width="35" height="30" as="geometry" />
        </mxCell>
        <mxCell id="g6qgAH0g6jWnOgv-mpRu-287" value="Új kurzus" style="text;strokeColor=none;fillColor=none;align=left;verticalAlign=middle;whiteSpace=wrap;rounded=0;autosize=1;connectable=0;allowArrows=0;movable=0;resizable=0;rotatable=0;deletable=0;cloneable=0;spacingLeft=6;fontStyle=0;html=1;" parent="g6qgAH0g6jWnOgv-mpRu-285" vertex="1">
          <mxGeometry x="35" width="80" height="30" as="geometry" />
        </mxCell>
        <mxCell id="g6qgAH0g6jWnOgv-mpRu-288" value="Kurzus módosítása" style="html=1;dashed=0;whitespace=wrap;shape=mxgraph.dfd.process2;align=center;container=1;collapsible=0;spacingTop=30;" parent="g6qgAH0g6jWnOgv-mpRu-282" vertex="1">
          <mxGeometry x="65" y="150" width="175" height="73.2906" as="geometry" />
        </mxCell>
        <mxCell id="g6qgAH0g6jWnOgv-mpRu-289" value="1.2" style="text;html=1;strokeColor=none;fillColor=none;align=center;verticalAlign=middle;whiteSpace=wrap;rounded=0;connectable=0;allowArrows=0;editable=1;movable=0;resizable=0;rotatable=0;deletable=0;locked=0;cloneable=0;" parent="g6qgAH0g6jWnOgv-mpRu-288" vertex="1">
          <mxGeometry width="35" height="30" as="geometry" />
        </mxCell>
        <mxCell id="g6qgAH0g6jWnOgv-mpRu-290" value="Kurzus szerkesztése" style="text;strokeColor=none;fillColor=none;align=left;verticalAlign=middle;whiteSpace=wrap;rounded=0;autosize=1;connectable=0;allowArrows=0;movable=0;resizable=0;rotatable=0;deletable=0;cloneable=0;spacingLeft=6;fontStyle=0;html=1;" parent="g6qgAH0g6jWnOgv-mpRu-288" vertex="1">
          <mxGeometry x="35" width="140" height="30" as="geometry" />
        </mxCell>
        <mxCell id="g6qgAH0g6jWnOgv-mpRu-291" value="Kurzus törlése" style="html=1;dashed=0;whitespace=wrap;shape=mxgraph.dfd.process2;align=center;container=1;collapsible=0;spacingTop=30;" parent="g6qgAH0g6jWnOgv-mpRu-282" vertex="1">
          <mxGeometry x="65" y="249.99999999999994" width="175" height="73.2906" as="geometry" />
        </mxCell>
        <mxCell id="g6qgAH0g6jWnOgv-mpRu-292" value="1.3" style="text;html=1;strokeColor=none;fillColor=none;align=center;verticalAlign=middle;whiteSpace=wrap;rounded=0;connectable=0;allowArrows=0;editable=1;movable=0;resizable=0;rotatable=0;deletable=0;locked=0;cloneable=0;" parent="g6qgAH0g6jWnOgv-mpRu-291" vertex="1">
          <mxGeometry width="35" height="30" as="geometry" />
        </mxCell>
        <mxCell id="g6qgAH0g6jWnOgv-mpRu-293" value="Kurzus szerkesztése" style="text;strokeColor=none;fillColor=none;align=left;verticalAlign=middle;whiteSpace=wrap;rounded=0;autosize=1;connectable=0;allowArrows=0;movable=0;resizable=0;rotatable=0;deletable=0;cloneable=0;spacingLeft=6;fontStyle=0;html=1;" parent="g6qgAH0g6jWnOgv-mpRu-291" vertex="1">
          <mxGeometry x="35" width="140" height="30" as="geometry" />
        </mxCell>
        <mxCell id="g6qgAH0g6jWnOgv-mpRu-294" value="Kurzus adatainak kiíratása" style="html=1;dashed=0;whitespace=wrap;shape=mxgraph.dfd.process2;align=center;container=1;collapsible=0;spacingTop=30;" parent="g6qgAH0g6jWnOgv-mpRu-282" vertex="1">
          <mxGeometry x="65" y="349.99999999999994" width="160" height="73.2906" as="geometry" />
        </mxCell>
        <mxCell id="g6qgAH0g6jWnOgv-mpRu-295" value="1.4" style="text;html=1;strokeColor=none;fillColor=none;align=center;verticalAlign=middle;whiteSpace=wrap;rounded=0;connectable=0;allowArrows=0;editable=1;movable=0;resizable=0;rotatable=0;deletable=0;locked=0;cloneable=0;" parent="g6qgAH0g6jWnOgv-mpRu-294" vertex="1">
          <mxGeometry width="35" height="30" as="geometry" />
        </mxCell>
        <mxCell id="g6qgAH0g6jWnOgv-mpRu-296" value="Kurzus" style="text;strokeColor=none;fillColor=none;align=left;verticalAlign=middle;whiteSpace=wrap;rounded=0;autosize=1;connectable=0;allowArrows=0;movable=0;resizable=0;rotatable=0;deletable=0;cloneable=0;spacingLeft=6;fontStyle=0;html=1;" parent="g6qgAH0g6jWnOgv-mpRu-294" vertex="1">
          <mxGeometry x="35" width="60" height="30" as="geometry" />
        </mxCell>
        <mxCell id="g6qgAH0g6jWnOgv-mpRu-297" value="Oktató felvétele" style="html=1;dashed=0;whitespace=wrap;shape=mxgraph.dfd.process2;align=center;container=1;collapsible=0;spacingTop=30;" parent="g6qgAH0g6jWnOgv-mpRu-282" vertex="1">
          <mxGeometry x="65" y="450" width="175" height="73.2906" as="geometry" />
        </mxCell>
        <mxCell id="g6qgAH0g6jWnOgv-mpRu-298" value="1.5" style="text;html=1;strokeColor=none;fillColor=none;align=center;verticalAlign=middle;whiteSpace=wrap;rounded=0;connectable=0;allowArrows=0;editable=1;movable=0;resizable=0;rotatable=0;deletable=0;locked=0;cloneable=0;" parent="g6qgAH0g6jWnOgv-mpRu-297" vertex="1">
          <mxGeometry width="35" height="30" as="geometry" />
        </mxCell>
        <mxCell id="g6qgAH0g6jWnOgv-mpRu-299" value="Kurzus szerkesztése" style="text;strokeColor=none;fillColor=none;align=left;verticalAlign=middle;whiteSpace=wrap;rounded=0;autosize=1;connectable=0;allowArrows=0;movable=0;resizable=0;rotatable=0;deletable=0;cloneable=0;spacingLeft=6;fontStyle=0;html=1;" parent="g6qgAH0g6jWnOgv-mpRu-297" vertex="1">
          <mxGeometry x="35" width="140" height="30" as="geometry" />
        </mxCell>
        <mxCell id="g6qgAH0g6jWnOgv-mpRu-300" value="Kurzust oktat" style="html=1;dashed=0;whitespace=wrap;shape=mxgraph.dfd.dataStoreID;align=left;spacingLeft=33;container=1;collapsible=0;autosize=0;flipH=0;" parent="1" vertex="1">
          <mxGeometry x="1609.67" y="-610" width="120" height="30" as="geometry" />
        </mxCell>
        <mxCell id="g6qgAH0g6jWnOgv-mpRu-301" value="L1" style="text;html=1;strokeColor=none;fillColor=none;align=center;verticalAlign=middle;whiteSpace=wrap;rounded=0;movable=0;resizable=0;rotatable=0;cloneable=0;deletable=0;allowArrows=0;connectable=0;" parent="g6qgAH0g6jWnOgv-mpRu-300" vertex="1">
          <mxGeometry width="30" height="30" as="geometry" />
        </mxCell>
        <mxCell id="g6qgAH0g6jWnOgv-mpRu-302" value="" style="endArrow=classic;startArrow=none;html=1;rounded=0;verticalAlign=bottom;entryX=-0.002;entryY=0.392;entryDx=0;entryDy=0;entryPerimeter=0;startFill=0;" parent="1" source="g6qgAH0g6jWnOgv-mpRu-297" target="g6qgAH0g6jWnOgv-mpRu-300" edge="1">
          <mxGeometry width="50" height="50" relative="1" as="geometry">
            <mxPoint x="1009.67" y="-750" as="sourcePoint" />
            <mxPoint x="1569.67" y="-930" as="targetPoint" />
          </mxGeometry>
        </mxCell>
        <mxCell id="g6qgAH0g6jWnOgv-mpRu-303" value="Admin" style="shape=stencil(tZRtjoMgEIZPw98GJR6gYXfvQe10nZQCAbYft99RNKlW7GajiTGZeeXhnZGBCRka5YCVvGHig5VlwTm9Kb5NYhUc1DElr8qjOmhISojenuGGx9gz0DTgMbaq+GR8T9+0j5C1NYYgaE0YKU86wRQaWsvvCdZv/xhFjvgXiOB7kynLyq+/Y3fVNuBiI79j7OB+db/rgceOi61+3Grg4v9YISmTO9xCHlR9/vb2xxxnzYDW6AK8OfLTeZzO66ynzM5CnqyHBUsn1DqN9UITnWoH/kUY5Iu9PtVUzRY1jx4IGk22K9UioSs+44+uvFxl3bKX1nTZdE12iV8=);whiteSpace=wrap;html=1;" parent="1" vertex="1">
          <mxGeometry x="969.67" y="-820" width="120" height="80" as="geometry" />
        </mxCell>
        <mxCell id="g6qgAH0g6jWnOgv-mpRu-304" value="" style="endArrow=none;startArrow=classic;html=1;rounded=0;verticalAlign=bottom;entryX=0.55;entryY=1.123;entryDx=0;entryDy=0;entryPerimeter=0;endFill=0;" parent="1" source="g6qgAH0g6jWnOgv-mpRu-294" target="g6qgAH0g6jWnOgv-mpRu-280" edge="1">
          <mxGeometry width="50" height="50" relative="1" as="geometry">
            <mxPoint x="1419.67" y="-830" as="sourcePoint" />
            <mxPoint x="1329.67" y="-570" as="targetPoint" />
          </mxGeometry>
        </mxCell>
        <mxCell id="g6qgAH0g6jWnOgv-mpRu-305" value="" style="endArrow=classic;html=1;rounded=0;verticalAlign=bottom;exitX=1.005;exitY=0.576;exitDx=0;exitDy=0;exitPerimeter=0;" parent="1" source="g6qgAH0g6jWnOgv-mpRu-291" target="g6qgAH0g6jWnOgv-mpRu-280" edge="1">
          <mxGeometry width="50" height="50" relative="1" as="geometry">
            <mxPoint x="1129.67" y="-630" as="sourcePoint" />
            <mxPoint x="1249.67" y="-630" as="targetPoint" />
          </mxGeometry>
        </mxCell>
        <mxCell id="g6qgAH0g6jWnOgv-mpRu-306" value="" style="endArrow=classic;html=1;rounded=0;verticalAlign=bottom;exitX=1.005;exitY=0.619;exitDx=0;exitDy=0;exitPerimeter=0;entryX=-0.025;entryY=0;entryDx=0;entryDy=0;entryPerimeter=0;" parent="1" source="g6qgAH0g6jWnOgv-mpRu-288" target="g6qgAH0g6jWnOgv-mpRu-280" edge="1">
          <mxGeometry width="50" height="50" relative="1" as="geometry">
            <mxPoint x="1129.67" y="-630" as="sourcePoint" />
            <mxPoint x="1249.67" y="-630" as="targetPoint" />
          </mxGeometry>
        </mxCell>
        <mxCell id="g6qgAH0g6jWnOgv-mpRu-307" value="" style="endArrow=classic;html=1;rounded=0;verticalAlign=bottom;exitX=1.021;exitY=0.582;exitDx=0;exitDy=0;exitPerimeter=0;" parent="1" source="g6qgAH0g6jWnOgv-mpRu-285" target="g6qgAH0g6jWnOgv-mpRu-280" edge="1">
          <mxGeometry width="50" height="50" relative="1" as="geometry">
            <mxPoint x="1129.67" y="-840" as="sourcePoint" />
            <mxPoint x="1249.67" y="-840" as="targetPoint" />
          </mxGeometry>
        </mxCell>
        <mxCell id="g6qgAH0g6jWnOgv-mpRu-308" value="kurzus adatai" style="endArrow=none;html=1;rounded=0;verticalAlign=bottom;edgeStyle=orthogonalEdgeStyle;startArrow=classic;startFill=1;exitX=0.005;exitY=0.645;exitDx=0;exitDy=0;exitPerimeter=0;endFill=0;" parent="1" source="g6qgAH0g6jWnOgv-mpRu-291" target="g6qgAH0g6jWnOgv-mpRu-303" edge="1">
          <mxGeometry x="0.4304" width="50" height="50" relative="1" as="geometry">
            <mxPoint x="811.0985714285715" y="-590" as="sourcePoint" />
            <mxPoint x="1269.67" y="-830" as="targetPoint" />
            <Array as="points">
              <mxPoint x="1159.67" y="-763" />
              <mxPoint x="1159.67" y="-763" />
            </Array>
            <mxPoint as="offset" />
          </mxGeometry>
        </mxCell>
        <mxCell id="g6qgAH0g6jWnOgv-mpRu-309" value="Kurzus információk" style="endArrow=classic;html=1;rounded=0;verticalAlign=bottom;edgeStyle=orthogonalEdgeStyle;exitX=0;exitY=0.579;exitDx=0;exitDy=0;exitPerimeter=0;" parent="1" source="g6qgAH0g6jWnOgv-mpRu-294" target="g6qgAH0g6jWnOgv-mpRu-303" edge="1">
          <mxGeometry x="-0.0171" width="50" height="50" relative="1" as="geometry">
            <mxPoint x="1189.67" y="-710" as="sourcePoint" />
            <mxPoint x="819.3900000000002" y="-589.28" as="targetPoint" />
            <Array as="points">
              <mxPoint x="1334.67" y="-660" />
              <mxPoint x="1029.67" y="-660" />
            </Array>
            <mxPoint as="offset" />
          </mxGeometry>
        </mxCell>
        <mxCell id="g6qgAH0g6jWnOgv-mpRu-310" value="kurzus adatai" style="endArrow=none;html=1;rounded=0;verticalAlign=bottom;edgeStyle=orthogonalEdgeStyle;startArrow=classic;startFill=1;exitX=-0.016;exitY=0.573;exitDx=0;exitDy=0;exitPerimeter=0;endFill=0;" parent="1" source="g6qgAH0g6jWnOgv-mpRu-288" target="g6qgAH0g6jWnOgv-mpRu-303" edge="1">
          <mxGeometry x="-0.0157" width="50" height="50" relative="1" as="geometry">
            <mxPoint x="1345.67" y="-753" as="sourcePoint" />
            <mxPoint x="1099.67" y="-753" as="targetPoint" />
            <Array as="points" />
            <mxPoint as="offset" />
          </mxGeometry>
        </mxCell>
        <mxCell id="g6qgAH0g6jWnOgv-mpRu-311" value="kurzus adatai" style="endArrow=none;html=1;rounded=0;verticalAlign=bottom;edgeStyle=orthogonalEdgeStyle;startArrow=classic;startFill=1;exitX=-0.005;exitY=0.685;exitDx=0;exitDy=0;exitPerimeter=0;endFill=0;" parent="1" source="g6qgAH0g6jWnOgv-mpRu-285" target="g6qgAH0g6jWnOgv-mpRu-303" edge="1">
          <mxGeometry x="-0.2152" width="50" height="50" relative="1" as="geometry">
            <mxPoint x="1355.67" y="-743" as="sourcePoint" />
            <mxPoint x="1109.67" y="-743" as="targetPoint" />
            <Array as="points">
              <mxPoint x="999.67" y="-960" />
            </Array>
            <mxPoint x="-1" as="offset" />
          </mxGeometry>
        </mxCell>
        <mxCell id="g6qgAH0g6jWnOgv-mpRu-312" value="Felhasználó Kód, Kurzus Kód" style="endArrow=classic;html=1;rounded=0;verticalAlign=bottom;edgeStyle=orthogonalEdgeStyle;entryX=-0.005;entryY=0.674;entryDx=0;entryDy=0;entryPerimeter=0;" parent="1" source="g6qgAH0g6jWnOgv-mpRu-303" target="g6qgAH0g6jWnOgv-mpRu-297" edge="1">
          <mxGeometry x="0.1978" y="1" width="50" height="50" relative="1" as="geometry">
            <mxPoint x="1319.67" y="-620" as="sourcePoint" />
            <mxPoint x="1439.67" y="-620" as="targetPoint" />
            <Array as="points">
              <mxPoint x="999.67" y="-560" />
              <mxPoint x="1211.67" y="-560" />
            </Array>
            <mxPoint as="offset" />
          </mxGeometry>
        </mxCell>
        <mxCell id="g6qgAH0g6jWnOgv-mpRu-313" value="" style="endArrow=classic;html=1;rounded=0;verticalAlign=bottom;exitX=0.361;exitY=0.004;exitDx=0;exitDy=0;exitPerimeter=0;entryX=0.995;entryY=0.55;entryDx=0;entryDy=0;entryPerimeter=0;" parent="1" source="g6qgAH0g6jWnOgv-mpRu-300" target="g6qgAH0g6jWnOgv-mpRu-294" edge="1">
          <mxGeometry width="50" height="50" relative="1" as="geometry">
            <mxPoint x="1249.67" y="-630" as="sourcePoint" />
            <mxPoint x="1369.67" y="-630" as="targetPoint" />
          </mxGeometry>
        </mxCell>
        <mxCell id="g6qgAH0g6jWnOgv-mpRu-314" value="Tantárgy" style="html=1;dashed=0;whitespace=wrap;shape=mxgraph.dfd.dataStoreID2;align=left;spacingLeft=38;container=1;collapsible=0;flipH=0;" parent="1" vertex="1">
          <mxGeometry x="1649.58" y="-243.01999999999998" width="120" height="30" as="geometry" />
        </mxCell>
        <mxCell id="g6qgAH0g6jWnOgv-mpRu-315" value="L2" style="text;html=1;strokeColor=none;fillColor=none;align=center;verticalAlign=middle;whiteSpace=wrap;rounded=0;connectable=0;allowArrows=0;movable=0;resizable=0;rotatable=0;cloneable=0;deletable=0;" parent="g6qgAH0g6jWnOgv-mpRu-314" vertex="1">
          <mxGeometry x="5" width="30" height="30" as="geometry" />
        </mxCell>
        <mxCell id="g6qgAH0g6jWnOgv-mpRu-316" value="" style="html=1;dashed=0;whitespace=wrap;shape=mxgraph.dfd.process;align=center;container=1;collapsible=0;spacingTop=30;" parent="1" vertex="1">
          <mxGeometry x="1315.58" y="-420" width="290" height="760" as="geometry" />
        </mxCell>
        <mxCell id="g6qgAH0g6jWnOgv-mpRu-317" value="2" style="text;html=1;strokeColor=none;fillColor=none;align=center;verticalAlign=middle;whiteSpace=wrap;rounded=0;movable=0;resizable=0;rotatable=0;cloneable=0;deletable=0;connectable=0;allowArrows=0;pointerEvents=1;" parent="g6qgAH0g6jWnOgv-mpRu-316" vertex="1">
          <mxGeometry width="35" height="30" as="geometry" />
        </mxCell>
        <mxCell id="g6qgAH0g6jWnOgv-mpRu-318" value="Tárgyak" style="text;html=1;strokeColor=none;fillColor=none;align=left;verticalAlign=middle;whiteSpace=wrap;rounded=0;movable=0;resizable=0;connectable=0;allowArrows=0;rotatable=0;cloneable=0;deletable=0;spacingLeft=6;autosize=1;resizeWidth=0;" parent="g6qgAH0g6jWnOgv-mpRu-316" vertex="1">
          <mxGeometry x="35" width="70" height="30" as="geometry" />
        </mxCell>
        <mxCell id="g6qgAH0g6jWnOgv-mpRu-319" value="Tárgy létrehozása" style="html=1;dashed=0;whitespace=wrap;shape=mxgraph.dfd.process2;align=center;container=1;collapsible=0;spacingTop=30;" parent="g6qgAH0g6jWnOgv-mpRu-316" vertex="1">
          <mxGeometry x="65" y="62.606233766233764" width="160" height="65.70545454545454" as="geometry" />
        </mxCell>
        <mxCell id="g6qgAH0g6jWnOgv-mpRu-320" value="2.1" style="text;html=1;strokeColor=none;fillColor=none;align=center;verticalAlign=middle;whiteSpace=wrap;rounded=0;connectable=0;allowArrows=0;editable=1;movable=0;resizable=0;rotatable=0;deletable=0;locked=0;cloneable=0;" parent="g6qgAH0g6jWnOgv-mpRu-319" vertex="1">
          <mxGeometry width="35" height="30" as="geometry" />
        </mxCell>
        <mxCell id="g6qgAH0g6jWnOgv-mpRu-321" value="Új tárgy" style="text;strokeColor=none;fillColor=none;align=left;verticalAlign=middle;whiteSpace=wrap;rounded=0;autosize=1;connectable=0;allowArrows=0;movable=0;resizable=0;rotatable=0;deletable=0;cloneable=0;spacingLeft=6;fontStyle=0;html=1;" parent="g6qgAH0g6jWnOgv-mpRu-319" vertex="1">
          <mxGeometry x="35" width="70" height="30" as="geometry" />
        </mxCell>
        <mxCell id="g6qgAH0g6jWnOgv-mpRu-322" value="Tárgy módosítása" style="html=1;dashed=0;whitespace=wrap;shape=mxgraph.dfd.process2;align=center;container=1;collapsible=0;spacingTop=30;" parent="g6qgAH0g6jWnOgv-mpRu-316" vertex="1">
          <mxGeometry x="65" y="138.1818181818182" width="165" height="68.79480519480519" as="geometry" />
        </mxCell>
        <mxCell id="g6qgAH0g6jWnOgv-mpRu-323" value="2.2" style="text;html=1;strokeColor=none;fillColor=none;align=center;verticalAlign=middle;whiteSpace=wrap;rounded=0;connectable=0;allowArrows=0;editable=1;movable=0;resizable=0;rotatable=0;deletable=0;locked=0;cloneable=0;" parent="g6qgAH0g6jWnOgv-mpRu-322" vertex="1">
          <mxGeometry width="35" height="30" as="geometry" />
        </mxCell>
        <mxCell id="g6qgAH0g6jWnOgv-mpRu-324" value="Tárgy szerkesztése" style="text;strokeColor=none;fillColor=none;align=left;verticalAlign=middle;whiteSpace=wrap;rounded=0;autosize=1;connectable=0;allowArrows=0;movable=0;resizable=0;rotatable=0;deletable=0;cloneable=0;spacingLeft=6;fontStyle=0;html=1;" parent="g6qgAH0g6jWnOgv-mpRu-322" vertex="1">
          <mxGeometry x="35" width="130" height="30" as="geometry" />
        </mxCell>
        <mxCell id="g6qgAH0g6jWnOgv-mpRu-325" value="Tárgy törlése" style="html=1;dashed=0;whitespace=wrap;shape=mxgraph.dfd.process2;align=center;container=1;collapsible=0;spacingTop=30;" parent="g6qgAH0g6jWnOgv-mpRu-316" vertex="1">
          <mxGeometry x="65" y="215.75116883116883" width="165" height="71.88415584415584" as="geometry" />
        </mxCell>
        <mxCell id="g6qgAH0g6jWnOgv-mpRu-326" value="2.3" style="text;html=1;strokeColor=none;fillColor=none;align=center;verticalAlign=middle;whiteSpace=wrap;rounded=0;connectable=0;allowArrows=0;editable=1;movable=0;resizable=0;rotatable=0;deletable=0;locked=0;cloneable=0;" parent="g6qgAH0g6jWnOgv-mpRu-325" vertex="1">
          <mxGeometry width="35" height="30" as="geometry" />
        </mxCell>
        <mxCell id="g6qgAH0g6jWnOgv-mpRu-327" value="Tárgy szerkesztése" style="text;strokeColor=none;fillColor=none;align=left;verticalAlign=middle;whiteSpace=wrap;rounded=0;autosize=1;connectable=0;allowArrows=0;movable=0;resizable=0;rotatable=0;deletable=0;cloneable=0;spacingLeft=6;fontStyle=0;html=1;" parent="g6qgAH0g6jWnOgv-mpRu-325" vertex="1">
          <mxGeometry x="35" width="130" height="30" as="geometry" />
        </mxCell>
        <mxCell id="g6qgAH0g6jWnOgv-mpRu-328" value="Tanterv adatainak kiíratása" style="html=1;dashed=0;whitespace=wrap;shape=mxgraph.dfd.process2;align=center;container=1;collapsible=0;spacingTop=30;" parent="g6qgAH0g6jWnOgv-mpRu-316" vertex="1">
          <mxGeometry x="65" y="306.1319480519481" width="160" height="68.93298701298701" as="geometry" />
        </mxCell>
        <mxCell id="g6qgAH0g6jWnOgv-mpRu-329" value="2.4" style="text;html=1;strokeColor=none;fillColor=none;align=center;verticalAlign=middle;whiteSpace=wrap;rounded=0;connectable=0;allowArrows=0;editable=1;movable=0;resizable=0;rotatable=0;deletable=0;locked=0;cloneable=0;" parent="g6qgAH0g6jWnOgv-mpRu-328" vertex="1">
          <mxGeometry width="35" height="30" as="geometry" />
        </mxCell>
        <mxCell id="g6qgAH0g6jWnOgv-mpRu-330" value="Tárgy" style="text;strokeColor=none;fillColor=none;align=left;verticalAlign=middle;whiteSpace=wrap;rounded=0;autosize=1;connectable=0;allowArrows=0;movable=0;resizable=0;rotatable=0;deletable=0;cloneable=0;spacingLeft=6;fontStyle=0;html=1;" parent="g6qgAH0g6jWnOgv-mpRu-328" vertex="1">
          <mxGeometry x="35" width="60" height="30" as="geometry" />
        </mxCell>
        <mxCell id="g6qgAH0g6jWnOgv-mpRu-344" value="Admin" style="shape=stencil(tZRtjoMgEIZPw98GJR6gYXfvQe10nZQCAbYft99RNKlW7GajiTGZeeXhnZGBCRka5YCVvGHig5VlwTm9Kb5NYhUc1DElr8qjOmhISojenuGGx9gz0DTgMbaq+GR8T9+0j5C1NYYgaE0YKU86wRQaWsvvCdZv/xhFjvgXiOB7kynLyq+/Y3fVNuBiI79j7OB+db/rgceOi61+3Grg4v9YISmTO9xCHlR9/vb2xxxnzYDW6AK8OfLTeZzO66ynzM5CnqyHBUsn1DqN9UITnWoH/kUY5Iu9PtVUzRY1jx4IGk22K9UioSs+44+uvFxl3bKX1nTZdE12iV8=);whiteSpace=wrap;html=1;" parent="1" vertex="1">
          <mxGeometry x="979.5799999999998" y="-200" width="120" height="80" as="geometry" />
        </mxCell>
        <mxCell id="g6qgAH0g6jWnOgv-mpRu-345" value="" style="endArrow=none;startArrow=classic;html=1;rounded=0;verticalAlign=bottom;endFill=0;" parent="1" source="g6qgAH0g6jWnOgv-mpRu-328" target="g6qgAH0g6jWnOgv-mpRu-314" edge="1">
          <mxGeometry width="50" height="50" relative="1" as="geometry">
            <mxPoint x="1429.58" y="-210" as="sourcePoint" />
            <mxPoint x="1679.58" y="-170" as="targetPoint" />
          </mxGeometry>
        </mxCell>
        <mxCell id="g6qgAH0g6jWnOgv-mpRu-346" value="" style="endArrow=classic;html=1;rounded=0;verticalAlign=bottom;exitX=1.005;exitY=0.576;exitDx=0;exitDy=0;exitPerimeter=0;" parent="1" source="g6qgAH0g6jWnOgv-mpRu-325" target="g6qgAH0g6jWnOgv-mpRu-314" edge="1">
          <mxGeometry width="50" height="50" relative="1" as="geometry">
            <mxPoint x="1139.58" y="-10" as="sourcePoint" />
            <mxPoint x="1259.58" y="-10" as="targetPoint" />
          </mxGeometry>
        </mxCell>
        <mxCell id="g6qgAH0g6jWnOgv-mpRu-347" value="" style="endArrow=classic;html=1;rounded=0;verticalAlign=bottom;exitX=1.005;exitY=0.619;exitDx=0;exitDy=0;exitPerimeter=0;" parent="1" source="g6qgAH0g6jWnOgv-mpRu-322" target="g6qgAH0g6jWnOgv-mpRu-314" edge="1">
          <mxGeometry width="50" height="50" relative="1" as="geometry">
            <mxPoint x="1139.58" y="-10" as="sourcePoint" />
            <mxPoint x="1259.58" y="-10" as="targetPoint" />
          </mxGeometry>
        </mxCell>
        <mxCell id="g6qgAH0g6jWnOgv-mpRu-348" value="" style="endArrow=classic;html=1;rounded=0;verticalAlign=bottom;exitX=1.021;exitY=0.582;exitDx=0;exitDy=0;exitPerimeter=0;" parent="1" source="g6qgAH0g6jWnOgv-mpRu-319" target="g6qgAH0g6jWnOgv-mpRu-314" edge="1">
          <mxGeometry width="50" height="50" relative="1" as="geometry">
            <mxPoint x="1139.58" y="-220" as="sourcePoint" />
            <mxPoint x="1259.58" y="-220" as="targetPoint" />
          </mxGeometry>
        </mxCell>
        <mxCell id="g6qgAH0g6jWnOgv-mpRu-349" value="tárgy adatai" style="endArrow=none;html=1;rounded=0;verticalAlign=bottom;edgeStyle=orthogonalEdgeStyle;startArrow=classic;startFill=1;endFill=0;" parent="1" source="g6qgAH0g6jWnOgv-mpRu-325" target="g6qgAH0g6jWnOgv-mpRu-344" edge="1">
          <mxGeometry x="0.4304" width="50" height="50" relative="1" as="geometry">
            <mxPoint x="821.0085714285714" y="30" as="sourcePoint" />
            <mxPoint x="1279.58" y="-210" as="targetPoint" />
            <Array as="points">
              <mxPoint x="1189.58" y="-165" />
              <mxPoint x="1189.58" y="-165" />
            </Array>
            <mxPoint as="offset" />
          </mxGeometry>
        </mxCell>
        <mxCell id="g6qgAH0g6jWnOgv-mpRu-350" value="tanterv információk" style="endArrow=classic;html=1;rounded=0;verticalAlign=bottom;edgeStyle=orthogonalEdgeStyle;exitX=0;exitY=0.579;exitDx=0;exitDy=0;exitPerimeter=0;" parent="1" source="g6qgAH0g6jWnOgv-mpRu-328" target="g6qgAH0g6jWnOgv-mpRu-344" edge="1">
          <mxGeometry x="-0.0171" width="50" height="50" relative="1" as="geometry">
            <mxPoint x="1199.58" y="-90" as="sourcePoint" />
            <mxPoint x="829.3000000000001" y="30.720000000000027" as="targetPoint" />
            <Array as="points">
              <mxPoint x="1344.58" y="-70" />
              <mxPoint x="1059.58" y="-70" />
            </Array>
            <mxPoint as="offset" />
          </mxGeometry>
        </mxCell>
        <mxCell id="g6qgAH0g6jWnOgv-mpRu-351" value="tárgy adatai" style="endArrow=none;html=1;rounded=0;verticalAlign=bottom;edgeStyle=orthogonalEdgeStyle;startArrow=classic;startFill=1;entryX=0.747;entryY=0.074;entryDx=0;entryDy=0;entryPerimeter=0;endFill=0;" parent="1" source="g6qgAH0g6jWnOgv-mpRu-322" target="g6qgAH0g6jWnOgv-mpRu-344" edge="1">
          <mxGeometry x="-0.0176" width="50" height="50" relative="1" as="geometry">
            <mxPoint x="1355.58" y="-133" as="sourcePoint" />
            <mxPoint x="1109.58" y="-133" as="targetPoint" />
            <Array as="points">
              <mxPoint x="1069.67" y="-260" />
            </Array>
            <mxPoint as="offset" />
          </mxGeometry>
        </mxCell>
        <mxCell id="g6qgAH0g6jWnOgv-mpRu-352" value="tárgy&amp;nbsp; adatai" style="endArrow=none;html=1;rounded=0;verticalAlign=bottom;edgeStyle=orthogonalEdgeStyle;startArrow=classic;startFill=1;endFill=0;" parent="1" source="g6qgAH0g6jWnOgv-mpRu-319" target="g6qgAH0g6jWnOgv-mpRu-344" edge="1">
          <mxGeometry x="-0.2152" width="50" height="50" relative="1" as="geometry">
            <mxPoint x="1365.58" y="-123" as="sourcePoint" />
            <mxPoint x="1119.58" y="-123" as="targetPoint" />
            <Array as="points">
              <mxPoint x="1039.67" y="-331" />
            </Array>
            <mxPoint x="-1" as="offset" />
          </mxGeometry>
        </mxCell>
        <mxCell id="g6qgAH0g6jWnOgv-mpRu-354" value="Tanterv" style="html=1;dashed=0;whitespace=wrap;shape=mxgraph.dfd.dataStoreID;align=left;spacingLeft=33;container=1;collapsible=0;autosize=0;" parent="1" vertex="1">
          <mxGeometry x="1629.67" y="-80" width="120" height="30" as="geometry" />
        </mxCell>
        <mxCell id="g6qgAH0g6jWnOgv-mpRu-355" value="L5" style="text;html=1;strokeColor=none;fillColor=none;align=center;verticalAlign=middle;whiteSpace=wrap;rounded=0;movable=0;resizable=0;rotatable=0;cloneable=0;deletable=0;allowArrows=0;connectable=0;" parent="g6qgAH0g6jWnOgv-mpRu-354" vertex="1">
          <mxGeometry width="30" height="30" as="geometry" />
        </mxCell>
        <mxCell id="g6qgAH0g6jWnOgv-mpRu-356" value="" style="endArrow=classic;html=1;rounded=0;verticalAlign=bottom;entryX=0.995;entryY=0.349;entryDx=0;entryDy=0;entryPerimeter=0;" parent="1" source="g6qgAH0g6jWnOgv-mpRu-362" target="g6qgAH0g6jWnOgv-mpRu-328" edge="1">
          <mxGeometry width="50" height="50" relative="1" as="geometry">
            <mxPoint x="1619.94" y="-81.19000000000005" as="sourcePoint" />
            <mxPoint x="1649.58" y="-140" as="targetPoint" />
          </mxGeometry>
        </mxCell>
        <mxCell id="g6qgAH0g6jWnOgv-mpRu-357" value="" style="endArrow=classic;html=1;rounded=0;verticalAlign=bottom;exitX=-0.032;exitY=0.453;exitDx=0;exitDy=0;exitPerimeter=0;" parent="1" source="g6qgAH0g6jWnOgv-mpRu-354" target="g6qgAH0g6jWnOgv-mpRu-328" edge="1">
          <mxGeometry width="50" height="50" relative="1" as="geometry">
            <mxPoint x="1399.58" y="80" as="sourcePoint" />
            <mxPoint x="1499.58" y="-50" as="targetPoint" />
          </mxGeometry>
        </mxCell>
        <mxCell id="g6qgAH0g6jWnOgv-mpRu-362" value="Szak" style="html=1;dashed=0;whitespace=wrap;shape=mxgraph.dfd.dataStoreID2;align=left;spacingLeft=38;container=1;collapsible=0;" parent="1" vertex="1">
          <mxGeometry x="1629.67" y="-143.87" width="120" height="30" as="geometry" />
        </mxCell>
        <mxCell id="g6qgAH0g6jWnOgv-mpRu-363" value="L3" style="text;html=1;strokeColor=none;fillColor=none;align=center;verticalAlign=middle;whiteSpace=wrap;rounded=0;connectable=0;allowArrows=0;movable=0;resizable=0;rotatable=0;cloneable=0;deletable=0;" parent="g6qgAH0g6jWnOgv-mpRu-362" vertex="1">
          <mxGeometry x="5" width="30" height="30" as="geometry" />
        </mxCell>
        <mxCell id="g6qgAH0g6jWnOgv-mpRu-368" value="Terem" style="html=1;dashed=0;whitespace=wrap;shape=mxgraph.dfd.dataStoreID2;align=left;spacingLeft=38;container=1;collapsible=0;flipH=0;" parent="1" vertex="1">
          <mxGeometry x="1559.67" y="645" width="120" height="30" as="geometry" />
        </mxCell>
        <mxCell id="g6qgAH0g6jWnOgv-mpRu-369" value="L6" style="text;html=1;strokeColor=none;fillColor=none;align=center;verticalAlign=middle;whiteSpace=wrap;rounded=0;connectable=0;allowArrows=0;movable=0;resizable=0;rotatable=0;cloneable=0;deletable=0;" parent="g6qgAH0g6jWnOgv-mpRu-368" vertex="1">
          <mxGeometry x="5" width="30" height="30" as="geometry" />
        </mxCell>
        <mxCell id="g6qgAH0g6jWnOgv-mpRu-370" value="" style="html=1;dashed=0;whitespace=wrap;shape=mxgraph.dfd.process;align=center;container=1;collapsible=0;spacingTop=30;" parent="1" vertex="1">
          <mxGeometry x="1219.67" y="405" width="290" height="460" as="geometry" />
        </mxCell>
        <mxCell id="g6qgAH0g6jWnOgv-mpRu-371" value="3" style="text;html=1;strokeColor=none;fillColor=none;align=center;verticalAlign=middle;whiteSpace=wrap;rounded=0;movable=0;resizable=0;rotatable=0;cloneable=0;deletable=0;connectable=0;allowArrows=0;pointerEvents=1;" parent="g6qgAH0g6jWnOgv-mpRu-370" vertex="1">
          <mxGeometry width="35" height="30" as="geometry" />
        </mxCell>
        <mxCell id="g6qgAH0g6jWnOgv-mpRu-372" value="Termek" style="text;html=1;strokeColor=none;fillColor=none;align=left;verticalAlign=middle;whiteSpace=wrap;rounded=0;movable=0;resizable=0;connectable=0;allowArrows=0;rotatable=0;cloneable=0;deletable=0;spacingLeft=6;autosize=1;resizeWidth=0;" parent="g6qgAH0g6jWnOgv-mpRu-370" vertex="1">
          <mxGeometry x="35" width="70" height="30" as="geometry" />
        </mxCell>
        <mxCell id="g6qgAH0g6jWnOgv-mpRu-373" value="Terem létrehozása" style="html=1;dashed=0;whitespace=wrap;shape=mxgraph.dfd.process2;align=center;container=1;collapsible=0;spacingTop=30;" parent="g6qgAH0g6jWnOgv-mpRu-370" vertex="1">
          <mxGeometry x="65" y="39.430986887153665" width="160" height="57.79910734032058" as="geometry" />
        </mxCell>
        <mxCell id="g6qgAH0g6jWnOgv-mpRu-374" value="3.1" style="text;html=1;strokeColor=none;fillColor=none;align=center;verticalAlign=middle;whiteSpace=wrap;rounded=0;connectable=0;allowArrows=0;editable=1;movable=0;resizable=0;rotatable=0;deletable=0;locked=0;cloneable=0;" parent="g6qgAH0g6jWnOgv-mpRu-373" vertex="1">
          <mxGeometry width="35" height="30" as="geometry" />
        </mxCell>
        <mxCell id="g6qgAH0g6jWnOgv-mpRu-375" value="Új terem" style="text;strokeColor=none;fillColor=none;align=left;verticalAlign=middle;whiteSpace=wrap;rounded=0;autosize=1;connectable=0;allowArrows=0;movable=0;resizable=0;rotatable=0;deletable=0;cloneable=0;spacingLeft=6;fontStyle=0;html=1;" parent="g6qgAH0g6jWnOgv-mpRu-373" vertex="1">
          <mxGeometry x="35" width="70" height="30" as="geometry" />
        </mxCell>
        <mxCell id="g6qgAH0g6jWnOgv-mpRu-376" value="Terem módosítása" style="html=1;dashed=0;whitespace=wrap;shape=mxgraph.dfd.process2;align=center;container=1;collapsible=0;spacingTop=30;" parent="g6qgAH0g6jWnOgv-mpRu-370" vertex="1">
          <mxGeometry x="65" y="150.00438019402335" width="165" height="57.79910734032058" as="geometry" />
        </mxCell>
        <mxCell id="g6qgAH0g6jWnOgv-mpRu-377" value="3.2" style="text;html=1;strokeColor=none;fillColor=none;align=center;verticalAlign=middle;whiteSpace=wrap;rounded=0;connectable=0;allowArrows=0;editable=1;movable=0;resizable=0;rotatable=0;deletable=0;locked=0;cloneable=0;" parent="g6qgAH0g6jWnOgv-mpRu-376" vertex="1">
          <mxGeometry width="35" height="30" as="geometry" />
        </mxCell>
        <mxCell id="g6qgAH0g6jWnOgv-mpRu-378" value="Terem szerkesztése" style="text;strokeColor=none;fillColor=none;align=left;verticalAlign=middle;whiteSpace=wrap;rounded=0;autosize=1;connectable=0;allowArrows=0;movable=0;resizable=0;rotatable=0;deletable=0;cloneable=0;spacingLeft=6;fontStyle=0;html=1;" parent="g6qgAH0g6jWnOgv-mpRu-376" vertex="1">
          <mxGeometry x="35" width="130" height="30" as="geometry" />
        </mxCell>
        <mxCell id="g6qgAH0g6jWnOgv-mpRu-379" value="Terem&amp;nbsp; törlése" style="html=1;dashed=0;whitespace=wrap;shape=mxgraph.dfd.process2;align=center;container=1;collapsible=0;spacingTop=30;" parent="g6qgAH0g6jWnOgv-mpRu-370" vertex="1">
          <mxGeometry x="65" y="269.9973003233722" width="165" height="57.79910734032058" as="geometry" />
        </mxCell>
        <mxCell id="g6qgAH0g6jWnOgv-mpRu-380" value="3.3" style="text;html=1;strokeColor=none;fillColor=none;align=center;verticalAlign=middle;whiteSpace=wrap;rounded=0;connectable=0;allowArrows=0;editable=1;movable=0;resizable=0;rotatable=0;deletable=0;locked=0;cloneable=0;" parent="g6qgAH0g6jWnOgv-mpRu-379" vertex="1">
          <mxGeometry width="35" height="30" as="geometry" />
        </mxCell>
        <mxCell id="g6qgAH0g6jWnOgv-mpRu-381" value="Terem szerkesztése" style="text;strokeColor=none;fillColor=none;align=left;verticalAlign=middle;whiteSpace=wrap;rounded=0;autosize=1;connectable=0;allowArrows=0;movable=0;resizable=0;rotatable=0;deletable=0;cloneable=0;spacingLeft=6;fontStyle=0;html=1;" parent="g6qgAH0g6jWnOgv-mpRu-379" vertex="1">
          <mxGeometry x="35" width="130" height="30" as="geometry" />
        </mxCell>
        <mxCell id="g6qgAH0g6jWnOgv-mpRu-382" value="Terem adatainak kiíratása" style="html=1;dashed=0;whitespace=wrap;shape=mxgraph.dfd.process2;align=center;container=1;collapsible=0;spacingTop=30;" parent="g6qgAH0g6jWnOgv-mpRu-370" vertex="1">
          <mxGeometry x="65" y="360.0002204527211" width="160" height="57.79910734032058" as="geometry" />
        </mxCell>
        <mxCell id="g6qgAH0g6jWnOgv-mpRu-383" value="3.4" style="text;html=1;strokeColor=none;fillColor=none;align=center;verticalAlign=middle;whiteSpace=wrap;rounded=0;connectable=0;allowArrows=0;editable=1;movable=0;resizable=0;rotatable=0;deletable=0;locked=0;cloneable=0;" parent="g6qgAH0g6jWnOgv-mpRu-382" vertex="1">
          <mxGeometry width="35" height="30" as="geometry" />
        </mxCell>
        <mxCell id="g6qgAH0g6jWnOgv-mpRu-384" value="Terem" style="text;strokeColor=none;fillColor=none;align=left;verticalAlign=middle;whiteSpace=wrap;rounded=0;autosize=1;connectable=0;allowArrows=0;movable=0;resizable=0;rotatable=0;deletable=0;cloneable=0;spacingLeft=6;fontStyle=0;html=1;" parent="g6qgAH0g6jWnOgv-mpRu-382" vertex="1">
          <mxGeometry x="35" width="60" height="30" as="geometry" />
        </mxCell>
        <mxCell id="g6qgAH0g6jWnOgv-mpRu-385" value="Admin" style="shape=stencil(tZRtjoMgEIZPw98GJR6gYXfvQe10nZQCAbYft99RNKlW7GajiTGZeeXhnZGBCRka5YCVvGHig5VlwTm9Kb5NYhUc1DElr8qjOmhISojenuGGx9gz0DTgMbaq+GR8T9+0j5C1NYYgaE0YKU86wRQaWsvvCdZv/xhFjvgXiOB7kynLyq+/Y3fVNuBiI79j7OB+db/rgceOi61+3Grg4v9YISmTO9xCHlR9/vb2xxxnzYDW6AK8OfLTeZzO66ynzM5CnqyHBUsn1DqN9UITnWoH/kUY5Iu9PtVUzRY1jx4IGk22K9UioSs+44+uvFxl3bKX1nTZdE12iV8=);whiteSpace=wrap;html=1;" parent="1" vertex="1">
          <mxGeometry x="919.67" y="585" width="120" height="80" as="geometry" />
        </mxCell>
        <mxCell id="g6qgAH0g6jWnOgv-mpRu-386" value="" style="endArrow=none;startArrow=classic;html=1;rounded=0;verticalAlign=bottom;entryX=0.55;entryY=1.123;entryDx=0;entryDy=0;entryPerimeter=0;endFill=0;exitX=0.998;exitY=0.492;exitDx=0;exitDy=0;exitPerimeter=0;" parent="1" source="g6qgAH0g6jWnOgv-mpRu-382" target="g6qgAH0g6jWnOgv-mpRu-368" edge="1">
          <mxGeometry width="50" height="50" relative="1" as="geometry">
            <mxPoint x="1369.67" y="635" as="sourcePoint" />
            <mxPoint x="1279.67" y="895" as="targetPoint" />
          </mxGeometry>
        </mxCell>
        <mxCell id="g6qgAH0g6jWnOgv-mpRu-387" value="" style="endArrow=classic;html=1;rounded=0;verticalAlign=bottom;exitX=1.005;exitY=0.576;exitDx=0;exitDy=0;exitPerimeter=0;" parent="1" source="g6qgAH0g6jWnOgv-mpRu-379" target="g6qgAH0g6jWnOgv-mpRu-368" edge="1">
          <mxGeometry width="50" height="50" relative="1" as="geometry">
            <mxPoint x="1079.67" y="835" as="sourcePoint" />
            <mxPoint x="1199.67" y="835" as="targetPoint" />
          </mxGeometry>
        </mxCell>
        <mxCell id="g6qgAH0g6jWnOgv-mpRu-388" value="" style="endArrow=classic;html=1;rounded=0;verticalAlign=bottom;exitX=1.005;exitY=0.619;exitDx=0;exitDy=0;exitPerimeter=0;entryX=-0.025;entryY=0;entryDx=0;entryDy=0;entryPerimeter=0;" parent="1" source="g6qgAH0g6jWnOgv-mpRu-376" target="g6qgAH0g6jWnOgv-mpRu-368" edge="1">
          <mxGeometry width="50" height="50" relative="1" as="geometry">
            <mxPoint x="1079.67" y="835" as="sourcePoint" />
            <mxPoint x="1199.67" y="835" as="targetPoint" />
          </mxGeometry>
        </mxCell>
        <mxCell id="g6qgAH0g6jWnOgv-mpRu-389" value="" style="endArrow=classic;html=1;rounded=0;verticalAlign=bottom;exitX=1.021;exitY=0.582;exitDx=0;exitDy=0;exitPerimeter=0;" parent="1" source="g6qgAH0g6jWnOgv-mpRu-373" target="g6qgAH0g6jWnOgv-mpRu-368" edge="1">
          <mxGeometry width="50" height="50" relative="1" as="geometry">
            <mxPoint x="1079.67" y="625" as="sourcePoint" />
            <mxPoint x="1199.67" y="625" as="targetPoint" />
          </mxGeometry>
        </mxCell>
        <mxCell id="g6qgAH0g6jWnOgv-mpRu-390" value="terem adatai" style="endArrow=classic;html=1;rounded=0;verticalAlign=bottom;edgeStyle=orthogonalEdgeStyle;startArrow=classic;startFill=1;entryX=0.821;entryY=0.887;entryDx=0;entryDy=0;entryPerimeter=0;" parent="1" source="g6qgAH0g6jWnOgv-mpRu-379" target="g6qgAH0g6jWnOgv-mpRu-385" edge="1">
          <mxGeometry x="0.4304" width="50" height="50" relative="1" as="geometry">
            <mxPoint x="761.0985714285715" y="875" as="sourcePoint" />
            <mxPoint x="1219.67" y="635" as="targetPoint" />
            <Array as="points">
              <mxPoint x="1017.67" y="705" />
            </Array>
            <mxPoint as="offset" />
          </mxGeometry>
        </mxCell>
        <mxCell id="g6qgAH0g6jWnOgv-mpRu-391" value="Terem információk" style="endArrow=classic;html=1;rounded=0;verticalAlign=bottom;edgeStyle=orthogonalEdgeStyle;exitX=0;exitY=0.579;exitDx=0;exitDy=0;exitPerimeter=0;" parent="1" source="g6qgAH0g6jWnOgv-mpRu-382" target="g6qgAH0g6jWnOgv-mpRu-385" edge="1">
          <mxGeometry x="-0.0171" width="50" height="50" relative="1" as="geometry">
            <mxPoint x="1139.67" y="755" as="sourcePoint" />
            <mxPoint x="769.3900000000002" y="875.7200000000003" as="targetPoint" />
            <Array as="points">
              <mxPoint x="1284.67" y="805" />
              <mxPoint x="979.67" y="805" />
            </Array>
            <mxPoint as="offset" />
          </mxGeometry>
        </mxCell>
        <mxCell id="g6qgAH0g6jWnOgv-mpRu-392" value="terem adatai" style="endArrow=none;html=1;rounded=0;verticalAlign=bottom;edgeStyle=orthogonalEdgeStyle;startArrow=classic;startFill=1;endFill=0;" parent="1" source="g6qgAH0g6jWnOgv-mpRu-376" target="g6qgAH0g6jWnOgv-mpRu-385" edge="1">
          <mxGeometry x="-0.0157" width="50" height="50" relative="1" as="geometry">
            <mxPoint x="1295.67" y="712" as="sourcePoint" />
            <mxPoint x="1049.67" y="712" as="targetPoint" />
            <Array as="points">
              <mxPoint x="1007.67" y="565" />
            </Array>
            <mxPoint as="offset" />
          </mxGeometry>
        </mxCell>
        <mxCell id="g6qgAH0g6jWnOgv-mpRu-393" value="terem adatai" style="endArrow=none;html=1;rounded=0;verticalAlign=bottom;edgeStyle=orthogonalEdgeStyle;startArrow=classic;startFill=1;exitX=-0.005;exitY=0.685;exitDx=0;exitDy=0;exitPerimeter=0;endFill=0;" parent="1" source="g6qgAH0g6jWnOgv-mpRu-373" target="g6qgAH0g6jWnOgv-mpRu-385" edge="1">
          <mxGeometry x="-0.2152" width="50" height="50" relative="1" as="geometry">
            <mxPoint x="1305.67" y="722" as="sourcePoint" />
            <mxPoint x="1059.67" y="722" as="targetPoint" />
            <Array as="points">
              <mxPoint x="979.67" y="485" />
            </Array>
            <mxPoint x="-1" as="offset" />
          </mxGeometry>
        </mxCell>
        <mxCell id="g6qgAH0g6jWnOgv-mpRu-415" value="" style="html=1;dashed=0;whitespace=wrap;shape=mxgraph.dfd.process;align=center;container=1;collapsible=0;spacingTop=30;" parent="1" vertex="1">
          <mxGeometry x="1219.58" y="970" width="290" height="800" as="geometry" />
        </mxCell>
        <mxCell id="g6qgAH0g6jWnOgv-mpRu-416" value="5" style="text;html=1;strokeColor=none;fillColor=none;align=center;verticalAlign=middle;whiteSpace=wrap;rounded=0;movable=0;resizable=0;rotatable=0;cloneable=0;deletable=0;connectable=0;allowArrows=0;pointerEvents=1;" parent="g6qgAH0g6jWnOgv-mpRu-415" vertex="1">
          <mxGeometry width="35" height="30" as="geometry" />
        </mxCell>
        <mxCell id="g6qgAH0g6jWnOgv-mpRu-417" value="Felhasználók" style="text;html=1;strokeColor=none;fillColor=none;align=left;verticalAlign=middle;whiteSpace=wrap;rounded=0;movable=0;resizable=0;connectable=0;allowArrows=0;rotatable=0;cloneable=0;deletable=0;spacingLeft=6;autosize=1;resizeWidth=0;" parent="g6qgAH0g6jWnOgv-mpRu-415" vertex="1">
          <mxGeometry x="35" width="100" height="30" as="geometry" />
        </mxCell>
        <mxCell id="g6qgAH0g6jWnOgv-mpRu-418" value="Hallgató felvétele" style="html=1;dashed=0;whitespace=wrap;shape=mxgraph.dfd.process2;align=center;container=1;collapsible=0;spacingTop=30;" parent="g6qgAH0g6jWnOgv-mpRu-415" vertex="1">
          <mxGeometry x="65" y="65.9012987012987" width="195" height="69.16363636363636" as="geometry" />
        </mxCell>
        <mxCell id="g6qgAH0g6jWnOgv-mpRu-419" value="5.1" style="text;html=1;strokeColor=none;fillColor=none;align=center;verticalAlign=middle;whiteSpace=wrap;rounded=0;connectable=0;allowArrows=0;editable=1;movable=0;resizable=0;rotatable=0;deletable=0;locked=0;cloneable=0;" parent="g6qgAH0g6jWnOgv-mpRu-418" vertex="1">
          <mxGeometry width="35" height="30" as="geometry" />
        </mxCell>
        <mxCell id="g6qgAH0g6jWnOgv-mpRu-420" value="Felhasználó szerkesztése" style="text;strokeColor=none;fillColor=none;align=left;verticalAlign=middle;whiteSpace=wrap;rounded=0;autosize=1;connectable=0;allowArrows=0;movable=0;resizable=0;rotatable=0;deletable=0;cloneable=0;spacingLeft=6;fontStyle=0;html=1;" parent="g6qgAH0g6jWnOgv-mpRu-418" vertex="1">
          <mxGeometry x="35" width="160" height="30" as="geometry" />
        </mxCell>
        <mxCell id="g6qgAH0g6jWnOgv-mpRu-421" value="Hallgató módosítása" style="html=1;dashed=0;whitespace=wrap;shape=mxgraph.dfd.process2;align=center;container=1;collapsible=0;spacingTop=30;" parent="g6qgAH0g6jWnOgv-mpRu-415" vertex="1">
          <mxGeometry x="65" y="145.45454545454544" width="195" height="72.4155844155844" as="geometry" />
        </mxCell>
        <mxCell id="g6qgAH0g6jWnOgv-mpRu-422" value="5.2" style="text;html=1;strokeColor=none;fillColor=none;align=center;verticalAlign=middle;whiteSpace=wrap;rounded=0;connectable=0;allowArrows=0;editable=1;movable=0;resizable=0;rotatable=0;deletable=0;locked=0;cloneable=0;" parent="g6qgAH0g6jWnOgv-mpRu-421" vertex="1">
          <mxGeometry width="35" height="30" as="geometry" />
        </mxCell>
        <mxCell id="g6qgAH0g6jWnOgv-mpRu-423" value="Felhasználó szerkesztése" style="text;strokeColor=none;fillColor=none;align=left;verticalAlign=middle;whiteSpace=wrap;rounded=0;autosize=1;connectable=0;allowArrows=0;movable=0;resizable=0;rotatable=0;deletable=0;cloneable=0;spacingLeft=6;fontStyle=0;html=1;" parent="g6qgAH0g6jWnOgv-mpRu-421" vertex="1">
          <mxGeometry x="35" width="160" height="30" as="geometry" />
        </mxCell>
        <mxCell id="g6qgAH0g6jWnOgv-mpRu-424" value="Hallgató törlése" style="html=1;dashed=0;whitespace=wrap;shape=mxgraph.dfd.process2;align=center;container=1;collapsible=0;spacingTop=30;" parent="g6qgAH0g6jWnOgv-mpRu-415" vertex="1">
          <mxGeometry x="65" y="227.10649350649348" width="195" height="75.66753246753247" as="geometry" />
        </mxCell>
        <mxCell id="g6qgAH0g6jWnOgv-mpRu-425" value="5.3" style="text;html=1;strokeColor=none;fillColor=none;align=center;verticalAlign=middle;whiteSpace=wrap;rounded=0;connectable=0;allowArrows=0;editable=1;movable=0;resizable=0;rotatable=0;deletable=0;locked=0;cloneable=0;" parent="g6qgAH0g6jWnOgv-mpRu-424" vertex="1">
          <mxGeometry width="35" height="30" as="geometry" />
        </mxCell>
        <mxCell id="g6qgAH0g6jWnOgv-mpRu-426" value="Felhasználó szerkesztése" style="text;strokeColor=none;fillColor=none;align=left;verticalAlign=middle;whiteSpace=wrap;rounded=0;autosize=1;connectable=0;allowArrows=0;movable=0;resizable=0;rotatable=0;deletable=0;cloneable=0;spacingLeft=6;fontStyle=0;html=1;" parent="g6qgAH0g6jWnOgv-mpRu-424" vertex="1">
          <mxGeometry x="35" width="160" height="30" as="geometry" />
        </mxCell>
        <mxCell id="g6qgAH0g6jWnOgv-mpRu-427" value="Felhasználó&lt;br&gt;&amp;nbsp;adatainak kiíratása" style="html=1;dashed=0;whitespace=wrap;shape=mxgraph.dfd.process2;align=center;container=1;collapsible=0;spacingTop=30;" parent="g6qgAH0g6jWnOgv-mpRu-415" vertex="1">
          <mxGeometry x="65" y="322.24415584415584" width="160" height="72.56103896103896" as="geometry" />
        </mxCell>
        <mxCell id="g6qgAH0g6jWnOgv-mpRu-428" value="5.4" style="text;html=1;strokeColor=none;fillColor=none;align=center;verticalAlign=middle;whiteSpace=wrap;rounded=0;connectable=0;allowArrows=0;editable=1;movable=0;resizable=0;rotatable=0;deletable=0;locked=0;cloneable=0;" parent="g6qgAH0g6jWnOgv-mpRu-427" vertex="1">
          <mxGeometry width="35" height="30" as="geometry" />
        </mxCell>
        <mxCell id="g6qgAH0g6jWnOgv-mpRu-429" value="Fellhasználó" style="text;strokeColor=none;fillColor=none;align=left;verticalAlign=middle;whiteSpace=wrap;rounded=0;autosize=1;connectable=0;allowArrows=0;movable=0;resizable=0;rotatable=0;deletable=0;cloneable=0;spacingLeft=6;fontStyle=0;html=1;" parent="g6qgAH0g6jWnOgv-mpRu-427" vertex="1">
          <mxGeometry x="35" width="90" height="30" as="geometry" />
        </mxCell>
        <mxCell id="g6qgAH0g6jWnOgv-mpRu-430" value="Felhasználó Létrehozása" style="html=1;dashed=0;whitespace=wrap;shape=mxgraph.dfd.process2;align=center;container=1;collapsible=0;spacingTop=30;" parent="g6qgAH0g6jWnOgv-mpRu-415" vertex="1">
          <mxGeometry x="65" y="417.29870129870125" width="160" height="71.01298701298701" as="geometry" />
        </mxCell>
        <mxCell id="g6qgAH0g6jWnOgv-mpRu-431" value="5.5" style="text;html=1;strokeColor=none;fillColor=none;align=center;verticalAlign=middle;whiteSpace=wrap;rounded=0;connectable=0;allowArrows=0;editable=1;movable=0;resizable=0;rotatable=0;deletable=0;locked=0;cloneable=0;" parent="g6qgAH0g6jWnOgv-mpRu-430" vertex="1">
          <mxGeometry width="35" height="30" as="geometry" />
        </mxCell>
        <mxCell id="g6qgAH0g6jWnOgv-mpRu-432" value="Új felhasználó" style="text;strokeColor=none;fillColor=none;align=left;verticalAlign=middle;whiteSpace=wrap;rounded=0;autosize=1;connectable=0;allowArrows=0;movable=0;resizable=0;rotatable=0;deletable=0;cloneable=0;spacingLeft=6;fontStyle=0;html=1;" parent="g6qgAH0g6jWnOgv-mpRu-430" vertex="1">
          <mxGeometry x="35" width="100" height="30" as="geometry" />
        </mxCell>
        <mxCell id="g6qgAH0g6jWnOgv-mpRu-433" value="Felhasználó módosítása," style="html=1;dashed=0;whitespace=wrap;shape=mxgraph.dfd.process2;align=center;container=1;collapsible=0;spacingTop=30;" parent="g6qgAH0g6jWnOgv-mpRu-415" vertex="1">
          <mxGeometry x="65" y="498.7012987012987" width="195" height="62.33766233766234" as="geometry" />
        </mxCell>
        <mxCell id="g6qgAH0g6jWnOgv-mpRu-434" value="5.6" style="text;html=1;strokeColor=none;fillColor=none;align=center;verticalAlign=middle;whiteSpace=wrap;rounded=0;connectable=0;allowArrows=0;editable=1;movable=0;resizable=0;rotatable=0;deletable=0;locked=0;cloneable=0;" parent="g6qgAH0g6jWnOgv-mpRu-433" vertex="1">
          <mxGeometry width="35" height="30" as="geometry" />
        </mxCell>
        <mxCell id="g6qgAH0g6jWnOgv-mpRu-435" value="Felhasználó szerkesztése" style="text;strokeColor=none;fillColor=none;align=left;verticalAlign=middle;whiteSpace=wrap;rounded=0;autosize=1;connectable=0;allowArrows=0;movable=0;resizable=0;rotatable=0;deletable=0;cloneable=0;spacingLeft=6;fontStyle=0;html=1;" parent="g6qgAH0g6jWnOgv-mpRu-433" vertex="1">
          <mxGeometry x="35" width="160" height="30" as="geometry" />
        </mxCell>
        <mxCell id="g6qgAH0g6jWnOgv-mpRu-436" value="Admin létrehozása" style="html=1;dashed=0;whitespace=wrap;shape=mxgraph.dfd.process2;align=center;container=1;collapsible=0;spacingTop=30;" parent="g6qgAH0g6jWnOgv-mpRu-415" vertex="1">
          <mxGeometry x="65" y="581.8181818181818" width="195" height="62.33766233766234" as="geometry" />
        </mxCell>
        <mxCell id="g6qgAH0g6jWnOgv-mpRu-437" value="5.7" style="text;html=1;strokeColor=none;fillColor=none;align=center;verticalAlign=middle;whiteSpace=wrap;rounded=0;connectable=0;allowArrows=0;editable=1;movable=0;resizable=0;rotatable=0;deletable=0;locked=0;cloneable=0;" parent="g6qgAH0g6jWnOgv-mpRu-436" vertex="1">
          <mxGeometry width="35" height="30" as="geometry" />
        </mxCell>
        <mxCell id="g6qgAH0g6jWnOgv-mpRu-438" value="Felhasználó szerkesztése" style="text;strokeColor=none;fillColor=none;align=left;verticalAlign=middle;whiteSpace=wrap;rounded=0;autosize=1;connectable=0;allowArrows=0;movable=0;resizable=0;rotatable=0;deletable=0;cloneable=0;spacingLeft=6;fontStyle=0;html=1;" parent="g6qgAH0g6jWnOgv-mpRu-436" vertex="1">
          <mxGeometry x="35" width="160" height="30" as="geometry" />
        </mxCell>
        <mxCell id="g6qgAH0g6jWnOgv-mpRu-439" value="Admin módosítása" style="html=1;dashed=0;whitespace=wrap;shape=mxgraph.dfd.process2;align=center;container=1;collapsible=0;spacingTop=30;" parent="g6qgAH0g6jWnOgv-mpRu-415" vertex="1">
          <mxGeometry x="65" y="664.94" width="195" height="55.06" as="geometry" />
        </mxCell>
        <mxCell id="g6qgAH0g6jWnOgv-mpRu-440" value="5.8" style="text;html=1;strokeColor=none;fillColor=none;align=center;verticalAlign=middle;whiteSpace=wrap;rounded=0;connectable=0;allowArrows=0;editable=1;movable=0;resizable=0;rotatable=0;deletable=0;locked=0;cloneable=0;" parent="g6qgAH0g6jWnOgv-mpRu-439" vertex="1">
          <mxGeometry width="35" height="30" as="geometry" />
        </mxCell>
        <mxCell id="g6qgAH0g6jWnOgv-mpRu-441" value="Felhasználó szerkesztése" style="text;strokeColor=none;fillColor=none;align=left;verticalAlign=middle;whiteSpace=wrap;rounded=0;autosize=1;connectable=0;allowArrows=0;movable=0;resizable=0;rotatable=0;deletable=0;cloneable=0;spacingLeft=6;fontStyle=0;html=1;" parent="g6qgAH0g6jWnOgv-mpRu-439" vertex="1">
          <mxGeometry x="35" width="160" height="30" as="geometry" />
        </mxCell>
        <mxCell id="g6qgAH0g6jWnOgv-mpRu-442" value="Admin törlése" style="html=1;dashed=0;whitespace=wrap;shape=mxgraph.dfd.process2;align=center;container=1;collapsible=0;spacingTop=30;" parent="g6qgAH0g6jWnOgv-mpRu-415" vertex="1">
          <mxGeometry x="65" y="726.32" width="195" height="53.68" as="geometry" />
        </mxCell>
        <mxCell id="g6qgAH0g6jWnOgv-mpRu-443" value="5.9" style="text;html=1;strokeColor=none;fillColor=none;align=center;verticalAlign=middle;whiteSpace=wrap;rounded=0;connectable=0;allowArrows=0;editable=1;movable=0;resizable=0;rotatable=0;deletable=0;locked=0;cloneable=0;" parent="g6qgAH0g6jWnOgv-mpRu-442" vertex="1">
          <mxGeometry width="35" height="30" as="geometry" />
        </mxCell>
        <mxCell id="g6qgAH0g6jWnOgv-mpRu-444" value="Felhasználó szerkesztése" style="text;strokeColor=none;fillColor=none;align=left;verticalAlign=middle;whiteSpace=wrap;rounded=0;autosize=1;connectable=0;allowArrows=0;movable=0;resizable=0;rotatable=0;deletable=0;cloneable=0;spacingLeft=6;fontStyle=0;html=1;" parent="g6qgAH0g6jWnOgv-mpRu-442" vertex="1">
          <mxGeometry x="35" width="160" height="30" as="geometry" />
        </mxCell>
        <mxCell id="g6qgAH0g6jWnOgv-mpRu-445" value="Hallgató" style="html=1;dashed=0;whitespace=wrap;shape=mxgraph.dfd.dataStoreID2;align=left;spacingLeft=38;container=1;collapsible=0;flipH=0;" parent="1" vertex="1">
          <mxGeometry x="1579.67" y="1147.58" width="120" height="30" as="geometry" />
        </mxCell>
        <mxCell id="g6qgAH0g6jWnOgv-mpRu-446" value="L8" style="text;html=1;strokeColor=none;fillColor=none;align=center;verticalAlign=middle;whiteSpace=wrap;rounded=0;connectable=0;allowArrows=0;movable=0;resizable=0;rotatable=0;cloneable=0;deletable=0;" parent="g6qgAH0g6jWnOgv-mpRu-445" vertex="1">
          <mxGeometry x="5" width="30" height="30" as="geometry" />
        </mxCell>
        <mxCell id="g6qgAH0g6jWnOgv-mpRu-447" value="Admin" style="shape=stencil(tZRtjoMgEIZPw98GJR6gYXfvQe10nZQCAbYft99RNKlW7GajiTGZeeXhnZGBCRka5YCVvGHig5VlwTm9Kb5NYhUc1DElr8qjOmhISojenuGGx9gz0DTgMbaq+GR8T9+0j5C1NYYgaE0YKU86wRQaWsvvCdZv/xhFjvgXiOB7kynLyq+/Y3fVNuBiI79j7OB+db/rgceOi61+3Grg4v9YISmTO9xCHlR9/vb2xxxnzYDW6AK8OfLTeZzO66ynzM5CnqyHBUsn1DqN9UITnWoH/kUY5Iu9PtVUzRY1jx4IGk22K9UioSs+44+uvFxl3bKX1nTZdE12iV8=);whiteSpace=wrap;html=1;" parent="1" vertex="1">
          <mxGeometry x="919.5799999999998" y="1210" width="120" height="80" as="geometry" />
        </mxCell>
        <mxCell id="g6qgAH0g6jWnOgv-mpRu-448" value="" style="endArrow=classic;html=1;rounded=0;verticalAlign=bottom;exitX=1.005;exitY=0.576;exitDx=0;exitDy=0;exitPerimeter=0;entryX=0.048;entryY=1.089;entryDx=0;entryDy=0;entryPerimeter=0;" parent="1" source="g6qgAH0g6jWnOgv-mpRu-424" target="g6qgAH0g6jWnOgv-mpRu-445" edge="1">
          <mxGeometry width="50" height="50" relative="1" as="geometry">
            <mxPoint x="1079.58" y="1400" as="sourcePoint" />
            <mxPoint x="1199.58" y="1400" as="targetPoint" />
          </mxGeometry>
        </mxCell>
        <mxCell id="g6qgAH0g6jWnOgv-mpRu-449" value="" style="endArrow=classic;html=1;rounded=0;verticalAlign=bottom;exitX=1.005;exitY=0.619;exitDx=0;exitDy=0;exitPerimeter=0;entryX=-0.038;entryY=0.404;entryDx=0;entryDy=0;entryPerimeter=0;" parent="1" source="g6qgAH0g6jWnOgv-mpRu-421" target="g6qgAH0g6jWnOgv-mpRu-445" edge="1">
          <mxGeometry width="50" height="50" relative="1" as="geometry">
            <mxPoint x="1079.58" y="1400" as="sourcePoint" />
            <mxPoint x="1199.58" y="1400" as="targetPoint" />
          </mxGeometry>
        </mxCell>
        <mxCell id="g6qgAH0g6jWnOgv-mpRu-450" value="" style="endArrow=classic;html=1;rounded=0;verticalAlign=bottom;exitX=1.021;exitY=0.582;exitDx=0;exitDy=0;exitPerimeter=0;entryX=-0.019;entryY=0.023;entryDx=0;entryDy=0;entryPerimeter=0;" parent="1" source="g6qgAH0g6jWnOgv-mpRu-418" target="g6qgAH0g6jWnOgv-mpRu-445" edge="1">
          <mxGeometry width="50" height="50" relative="1" as="geometry">
            <mxPoint x="1079.58" y="1190" as="sourcePoint" />
            <mxPoint x="1199.58" y="1190" as="targetPoint" />
          </mxGeometry>
        </mxCell>
        <mxCell id="g6qgAH0g6jWnOgv-mpRu-451" value="Hallgató adatai" style="endArrow=none;html=1;rounded=0;verticalAlign=bottom;edgeStyle=orthogonalEdgeStyle;startArrow=classic;startFill=1;endFill=0;" parent="1" source="g6qgAH0g6jWnOgv-mpRu-424" target="g6qgAH0g6jWnOgv-mpRu-447" edge="1">
          <mxGeometry x="0.4304" width="50" height="50" relative="1" as="geometry">
            <mxPoint x="761.0085714285714" y="1440" as="sourcePoint" />
            <mxPoint x="1219.58" y="1200" as="targetPoint" />
            <Array as="points">
              <mxPoint x="1129.58" y="1245" />
              <mxPoint x="1129.58" y="1245" />
            </Array>
            <mxPoint as="offset" />
          </mxGeometry>
        </mxCell>
        <mxCell id="g6qgAH0g6jWnOgv-mpRu-452" value="Felhasználók és szerepük&amp;nbsp;" style="endArrow=classic;html=1;rounded=0;verticalAlign=bottom;edgeStyle=orthogonalEdgeStyle;exitX=0;exitY=0.579;exitDx=0;exitDy=0;exitPerimeter=0;" parent="1" source="g6qgAH0g6jWnOgv-mpRu-427" target="g6qgAH0g6jWnOgv-mpRu-447" edge="1">
          <mxGeometry x="-0.0171" width="50" height="50" relative="1" as="geometry">
            <mxPoint x="1139.58" y="1320" as="sourcePoint" />
            <mxPoint x="769.3000000000001" y="1440.7200000000003" as="targetPoint" />
            <Array as="points">
              <mxPoint x="1284.58" y="1340" />
              <mxPoint x="999.5799999999998" y="1340" />
            </Array>
            <mxPoint as="offset" />
          </mxGeometry>
        </mxCell>
        <mxCell id="g6qgAH0g6jWnOgv-mpRu-453" value="Hallgató adatai" style="endArrow=none;html=1;rounded=0;verticalAlign=bottom;edgeStyle=orthogonalEdgeStyle;startArrow=classic;startFill=1;entryX=0.747;entryY=0.074;entryDx=0;entryDy=0;entryPerimeter=0;endFill=0;" parent="1" source="g6qgAH0g6jWnOgv-mpRu-421" target="g6qgAH0g6jWnOgv-mpRu-447" edge="1">
          <mxGeometry x="-0.0139" width="50" height="50" relative="1" as="geometry">
            <mxPoint x="1295.58" y="1277" as="sourcePoint" />
            <mxPoint x="1049.58" y="1277" as="targetPoint" />
            <Array as="points">
              <mxPoint x="1009.67" y="1150" />
            </Array>
            <mxPoint as="offset" />
          </mxGeometry>
        </mxCell>
        <mxCell id="g6qgAH0g6jWnOgv-mpRu-454" value="Hallgató adatai, Szak adatai" style="endArrow=none;html=1;rounded=0;verticalAlign=bottom;edgeStyle=orthogonalEdgeStyle;startArrow=classic;startFill=1;endFill=0;" parent="1" source="g6qgAH0g6jWnOgv-mpRu-418" target="g6qgAH0g6jWnOgv-mpRu-447" edge="1">
          <mxGeometry x="-0.2152" width="50" height="50" relative="1" as="geometry">
            <mxPoint x="1305.58" y="1287" as="sourcePoint" />
            <mxPoint x="1059.58" y="1287" as="targetPoint" />
            <Array as="points">
              <mxPoint x="979.67" y="1079" />
            </Array>
            <mxPoint x="-1" as="offset" />
          </mxGeometry>
        </mxCell>
        <mxCell id="g6qgAH0g6jWnOgv-mpRu-455" value="Felhasználó adatai" style="endArrow=classic;html=1;rounded=0;verticalAlign=bottom;edgeStyle=orthogonalEdgeStyle;" parent="1" source="g6qgAH0g6jWnOgv-mpRu-447" target="g6qgAH0g6jWnOgv-mpRu-430" edge="1">
          <mxGeometry x="0.1978" y="1" width="50" height="50" relative="1" as="geometry">
            <mxPoint x="1269.58" y="1410" as="sourcePoint" />
            <mxPoint x="1389.58" y="1410" as="targetPoint" />
            <Array as="points">
              <mxPoint x="979.5799999999998" y="1425" />
            </Array>
            <mxPoint as="offset" />
          </mxGeometry>
        </mxCell>
        <mxCell id="g6qgAH0g6jWnOgv-mpRu-456" value="Felhasználók" style="html=1;dashed=0;whitespace=wrap;shape=mxgraph.dfd.dataStoreID;align=left;spacingLeft=33;container=1;collapsible=0;autosize=0;" parent="1" vertex="1">
          <mxGeometry x="1579.67" y="1364.81" width="120" height="30" as="geometry" />
        </mxCell>
        <mxCell id="g6qgAH0g6jWnOgv-mpRu-457" value="L10" style="text;html=1;strokeColor=none;fillColor=none;align=center;verticalAlign=middle;whiteSpace=wrap;rounded=0;movable=0;resizable=0;rotatable=0;cloneable=0;deletable=0;allowArrows=0;connectable=0;" parent="g6qgAH0g6jWnOgv-mpRu-456" vertex="1">
          <mxGeometry width="30" height="30" as="geometry" />
        </mxCell>
        <mxCell id="g6qgAH0g6jWnOgv-mpRu-458" value="" style="endArrow=classic;html=1;rounded=0;verticalAlign=bottom;exitX=-0.032;exitY=0.453;exitDx=0;exitDy=0;exitPerimeter=0;" parent="1" source="g6qgAH0g6jWnOgv-mpRu-456" target="g6qgAH0g6jWnOgv-mpRu-427" edge="1">
          <mxGeometry width="50" height="50" relative="1" as="geometry">
            <mxPoint x="1339.58" y="1490" as="sourcePoint" />
            <mxPoint x="1439.58" y="1360" as="targetPoint" />
          </mxGeometry>
        </mxCell>
        <mxCell id="g6qgAH0g6jWnOgv-mpRu-459" value="Felhasználó adatai" style="endArrow=classic;html=1;rounded=0;verticalAlign=bottom;edgeStyle=orthogonalEdgeStyle;" parent="1" source="g6qgAH0g6jWnOgv-mpRu-447" target="g6qgAH0g6jWnOgv-mpRu-433" edge="1">
          <mxGeometry x="0.1978" y="1" width="50" height="50" relative="1" as="geometry">
            <mxPoint x="989.5799999999998" y="1300" as="sourcePoint" />
            <mxPoint x="1294.58" y="1435" as="targetPoint" />
            <Array as="points">
              <mxPoint x="969.5799999999998" y="1501" />
            </Array>
            <mxPoint as="offset" />
          </mxGeometry>
        </mxCell>
        <mxCell id="g6qgAH0g6jWnOgv-mpRu-460" value="Admin adatai" style="endArrow=classic;html=1;rounded=0;verticalAlign=bottom;edgeStyle=orthogonalEdgeStyle;" parent="1" source="g6qgAH0g6jWnOgv-mpRu-447" target="g6qgAH0g6jWnOgv-mpRu-436" edge="1">
          <mxGeometry x="0.1978" y="1" width="50" height="50" relative="1" as="geometry">
            <mxPoint x="929.5799999999998" y="1300" as="sourcePoint" />
            <mxPoint x="1304.58" y="1445" as="targetPoint" />
            <Array as="points">
              <mxPoint x="949.5799999999998" y="1580" />
            </Array>
            <mxPoint as="offset" />
          </mxGeometry>
        </mxCell>
        <mxCell id="g6qgAH0g6jWnOgv-mpRu-461" value="" style="endArrow=classic;html=1;rounded=0;verticalAlign=bottom;entryX=0.389;entryY=1.068;entryDx=0;entryDy=0;entryPerimeter=0;exitX=0.995;exitY=0.467;exitDx=0;exitDy=0;exitPerimeter=0;" parent="1" source="g6qgAH0g6jWnOgv-mpRu-433" target="g6qgAH0g6jWnOgv-mpRu-456" edge="1">
          <mxGeometry width="50" height="50" relative="1" as="geometry">
            <mxPoint x="1339.58" y="1450" as="sourcePoint" />
            <mxPoint x="1459.58" y="1450" as="targetPoint" />
          </mxGeometry>
        </mxCell>
        <mxCell id="g6qgAH0g6jWnOgv-mpRu-462" value="" style="endArrow=classic;html=1;rounded=0;verticalAlign=bottom;entryX=-0.032;entryY=0.619;entryDx=0;entryDy=0;entryPerimeter=0;" parent="1" source="g6qgAH0g6jWnOgv-mpRu-430" target="g6qgAH0g6jWnOgv-mpRu-456" edge="1">
          <mxGeometry width="50" height="50" relative="1" as="geometry">
            <mxPoint x="1339.58" y="1450" as="sourcePoint" />
            <mxPoint x="1459.58" y="1450" as="targetPoint" />
          </mxGeometry>
        </mxCell>
        <mxCell id="g6qgAH0g6jWnOgv-mpRu-463" value="Admin" style="html=1;dashed=0;whitespace=wrap;shape=mxgraph.dfd.dataStoreID2;align=left;spacingLeft=38;container=1;collapsible=0;" parent="1" vertex="1">
          <mxGeometry x="1559.58" y="1647.4700000000003" width="120" height="30" as="geometry" />
        </mxCell>
        <mxCell id="g6qgAH0g6jWnOgv-mpRu-464" value="L9" style="text;html=1;strokeColor=none;fillColor=none;align=center;verticalAlign=middle;whiteSpace=wrap;rounded=0;connectable=0;allowArrows=0;movable=0;resizable=0;rotatable=0;cloneable=0;deletable=0;" parent="g6qgAH0g6jWnOgv-mpRu-463" vertex="1">
          <mxGeometry x="5" width="30" height="30" as="geometry" />
        </mxCell>
        <mxCell id="g6qgAH0g6jWnOgv-mpRu-465" value="" style="endArrow=classic;html=1;rounded=0;verticalAlign=bottom;" parent="1" source="g6qgAH0g6jWnOgv-mpRu-439" target="g6qgAH0g6jWnOgv-mpRu-463" edge="1">
          <mxGeometry width="50" height="50" relative="1" as="geometry">
            <mxPoint x="1339.58" y="1550" as="sourcePoint" />
            <mxPoint x="1459.58" y="1550" as="targetPoint" />
          </mxGeometry>
        </mxCell>
        <mxCell id="g6qgAH0g6jWnOgv-mpRu-466" value="Admin adatai&amp;nbsp;" style="endArrow=classic;html=1;rounded=0;verticalAlign=bottom;edgeStyle=orthogonalEdgeStyle;" parent="1" source="g6qgAH0g6jWnOgv-mpRu-447" target="g6qgAH0g6jWnOgv-mpRu-439" edge="1">
          <mxGeometry x="-0.1677" width="50" height="50" relative="1" as="geometry">
            <mxPoint x="1339.58" y="1340" as="sourcePoint" />
            <mxPoint x="1459.58" y="1340" as="targetPoint" />
            <Array as="points">
              <mxPoint x="899.67" y="1250" />
              <mxPoint x="899.67" y="1662" />
            </Array>
            <mxPoint as="offset" />
          </mxGeometry>
        </mxCell>
        <mxCell id="g6qgAH0g6jWnOgv-mpRu-467" value="Admin adatai" style="endArrow=classic;html=1;rounded=0;verticalAlign=bottom;edgeStyle=orthogonalEdgeStyle;" parent="1" source="g6qgAH0g6jWnOgv-mpRu-447" target="g6qgAH0g6jWnOgv-mpRu-442" edge="1">
          <mxGeometry width="50" height="50" relative="1" as="geometry">
            <mxPoint x="1079.67" y="1390" as="sourcePoint" />
            <mxPoint x="1199.67" y="1390" as="targetPoint" />
            <Array as="points">
              <mxPoint x="869.67" y="1230" />
              <mxPoint x="869.67" y="1723" />
            </Array>
          </mxGeometry>
        </mxCell>
        <mxCell id="g6qgAH0g6jWnOgv-mpRu-468" value="" style="endArrow=classic;html=1;rounded=0;verticalAlign=bottom;" parent="1" source="g6qgAH0g6jWnOgv-mpRu-436" target="g6qgAH0g6jWnOgv-mpRu-463" edge="1">
          <mxGeometry width="50" height="50" relative="1" as="geometry">
            <mxPoint x="1079.67" y="1530" as="sourcePoint" />
            <mxPoint x="1199.67" y="1530" as="targetPoint" />
          </mxGeometry>
        </mxCell>
        <mxCell id="g6qgAH0g6jWnOgv-mpRu-469" value="" style="endArrow=classic;html=1;rounded=0;verticalAlign=bottom;entryX=0.101;entryY=0.999;entryDx=0;entryDy=0;entryPerimeter=0;" parent="1" source="g6qgAH0g6jWnOgv-mpRu-442" target="g6qgAH0g6jWnOgv-mpRu-463" edge="1">
          <mxGeometry width="50" height="50" relative="1" as="geometry">
            <mxPoint x="1079.67" y="1530" as="sourcePoint" />
            <mxPoint x="1199.67" y="1530" as="targetPoint" />
          </mxGeometry>
        </mxCell>
        <mxCell id="g6qgAH0g6jWnOgv-mpRu-471" value="Vizsga" style="html=1;dashed=0;whitespace=wrap;shape=mxgraph.dfd.dataStoreID2;align=left;spacingLeft=38;container=1;collapsible=0;flipH=0;" parent="1" vertex="1">
          <mxGeometry x="1582.67" y="2110" width="120" height="30" as="geometry" />
        </mxCell>
        <mxCell id="g6qgAH0g6jWnOgv-mpRu-472" value="L11" style="text;html=1;strokeColor=none;fillColor=none;align=center;verticalAlign=middle;whiteSpace=wrap;rounded=0;connectable=0;allowArrows=0;movable=0;resizable=0;rotatable=0;cloneable=0;deletable=0;" parent="g6qgAH0g6jWnOgv-mpRu-471" vertex="1">
          <mxGeometry x="5" width="30" height="30" as="geometry" />
        </mxCell>
        <mxCell id="g6qgAH0g6jWnOgv-mpRu-473" value="" style="html=1;dashed=0;whitespace=wrap;shape=mxgraph.dfd.process;align=center;container=1;collapsible=0;spacingTop=30;" parent="1" vertex="1">
          <mxGeometry x="1242.67" y="1870" width="290" height="530" as="geometry" />
        </mxCell>
        <mxCell id="g6qgAH0g6jWnOgv-mpRu-474" value="6" style="text;html=1;strokeColor=none;fillColor=none;align=center;verticalAlign=middle;whiteSpace=wrap;rounded=0;movable=0;resizable=0;rotatable=0;cloneable=0;deletable=0;connectable=0;allowArrows=0;pointerEvents=1;" parent="g6qgAH0g6jWnOgv-mpRu-473" vertex="1">
          <mxGeometry width="35" height="30" as="geometry" />
        </mxCell>
        <mxCell id="g6qgAH0g6jWnOgv-mpRu-475" value="Vizsgák" style="text;html=1;strokeColor=none;fillColor=none;align=left;verticalAlign=middle;whiteSpace=wrap;rounded=0;movable=0;resizable=0;connectable=0;allowArrows=0;rotatable=0;cloneable=0;deletable=0;spacingLeft=6;autosize=1;resizeWidth=0;" parent="g6qgAH0g6jWnOgv-mpRu-473" vertex="1">
          <mxGeometry x="35" width="70" height="30" as="geometry" />
        </mxCell>
        <mxCell id="g6qgAH0g6jWnOgv-mpRu-476" value="Vizsga létrehozása" style="html=1;dashed=0;whitespace=wrap;shape=mxgraph.dfd.process2;align=center;container=1;collapsible=0;spacingTop=30;" parent="g6qgAH0g6jWnOgv-mpRu-473" vertex="1">
          <mxGeometry x="65" y="45.43135445693792" width="160" height="66.59462367471718" as="geometry" />
        </mxCell>
        <mxCell id="g6qgAH0g6jWnOgv-mpRu-477" value="6.1" style="text;html=1;strokeColor=none;fillColor=none;align=center;verticalAlign=middle;whiteSpace=wrap;rounded=0;connectable=0;allowArrows=0;editable=1;movable=0;resizable=0;rotatable=0;deletable=0;locked=0;cloneable=0;" parent="g6qgAH0g6jWnOgv-mpRu-476" vertex="1">
          <mxGeometry width="35" height="30" as="geometry" />
        </mxCell>
        <mxCell id="g6qgAH0g6jWnOgv-mpRu-478" value="Új vizsga" style="text;strokeColor=none;fillColor=none;align=left;verticalAlign=middle;whiteSpace=wrap;rounded=0;autosize=1;connectable=0;allowArrows=0;movable=0;resizable=0;rotatable=0;deletable=0;cloneable=0;spacingLeft=6;fontStyle=0;html=1;" parent="g6qgAH0g6jWnOgv-mpRu-476" vertex="1">
          <mxGeometry x="35" width="80" height="30" as="geometry" />
        </mxCell>
        <mxCell id="g6qgAH0g6jWnOgv-mpRu-479" value="Vizsga módosítása" style="html=1;dashed=0;whitespace=wrap;shape=mxgraph.dfd.process2;align=center;container=1;collapsible=0;spacingTop=30;" parent="g6qgAH0g6jWnOgv-mpRu-473" vertex="1">
          <mxGeometry x="65" y="136.29569891920082" width="175" height="66.59462367471718" as="geometry" />
        </mxCell>
        <mxCell id="g6qgAH0g6jWnOgv-mpRu-480" value="6.2" style="text;html=1;strokeColor=none;fillColor=none;align=center;verticalAlign=middle;whiteSpace=wrap;rounded=0;connectable=0;allowArrows=0;editable=1;movable=0;resizable=0;rotatable=0;deletable=0;locked=0;cloneable=0;" parent="g6qgAH0g6jWnOgv-mpRu-479" vertex="1">
          <mxGeometry width="35" height="30" as="geometry" />
        </mxCell>
        <mxCell id="g6qgAH0g6jWnOgv-mpRu-481" value="Vizsga szerkesztése" style="text;strokeColor=none;fillColor=none;align=left;verticalAlign=middle;whiteSpace=wrap;rounded=0;autosize=1;connectable=0;allowArrows=0;movable=0;resizable=0;rotatable=0;deletable=0;cloneable=0;spacingLeft=6;fontStyle=0;html=1;" parent="g6qgAH0g6jWnOgv-mpRu-479" vertex="1">
          <mxGeometry x="35" width="140" height="30" as="geometry" />
        </mxCell>
        <mxCell id="g6qgAH0g6jWnOgv-mpRu-482" value="Vizsga törlése" style="html=1;dashed=0;whitespace=wrap;shape=mxgraph.dfd.process2;align=center;container=1;collapsible=0;spacingTop=30;" parent="g6qgAH0g6jWnOgv-mpRu-473" vertex="1">
          <mxGeometry x="65" y="263.5050179104549" width="175" height="90.8637992794672" as="geometry" />
        </mxCell>
        <mxCell id="g6qgAH0g6jWnOgv-mpRu-483" value="6.3" style="text;html=1;strokeColor=none;fillColor=none;align=center;verticalAlign=middle;whiteSpace=wrap;rounded=0;connectable=0;allowArrows=0;editable=1;movable=0;resizable=0;rotatable=0;deletable=0;locked=0;cloneable=0;" parent="g6qgAH0g6jWnOgv-mpRu-482" vertex="1">
          <mxGeometry width="35" height="30" as="geometry" />
        </mxCell>
        <mxCell id="g6qgAH0g6jWnOgv-mpRu-484" value="Vizsga szerkesztése" style="text;strokeColor=none;fillColor=none;align=left;verticalAlign=middle;whiteSpace=wrap;rounded=0;autosize=1;connectable=0;allowArrows=0;movable=0;resizable=0;rotatable=0;deletable=0;cloneable=0;spacingLeft=6;fontStyle=0;html=1;" parent="g6qgAH0g6jWnOgv-mpRu-482" vertex="1">
          <mxGeometry x="35" width="140" height="30" as="geometry" />
        </mxCell>
        <mxCell id="g6qgAH0g6jWnOgv-mpRu-485" value="Vizsga adatainak kiíratása" style="html=1;dashed=0;whitespace=wrap;shape=mxgraph.dfd.process2;align=center;container=1;collapsible=0;spacingTop=30;" parent="g6qgAH0g6jWnOgv-mpRu-473" vertex="1">
          <mxGeometry x="65" y="390.714336901709" width="160" height="118.12293906330737" as="geometry" />
        </mxCell>
        <mxCell id="g6qgAH0g6jWnOgv-mpRu-486" value="6.4" style="text;html=1;strokeColor=none;fillColor=none;align=center;verticalAlign=middle;whiteSpace=wrap;rounded=0;connectable=0;allowArrows=0;editable=1;movable=0;resizable=0;rotatable=0;deletable=0;locked=0;cloneable=0;" parent="g6qgAH0g6jWnOgv-mpRu-485" vertex="1">
          <mxGeometry width="35" height="30" as="geometry" />
        </mxCell>
        <mxCell id="g6qgAH0g6jWnOgv-mpRu-487" value="Vizsga" style="text;strokeColor=none;fillColor=none;align=left;verticalAlign=middle;whiteSpace=wrap;rounded=0;autosize=1;connectable=0;allowArrows=0;movable=0;resizable=0;rotatable=0;deletable=0;cloneable=0;spacingLeft=6;fontStyle=0;html=1;" parent="g6qgAH0g6jWnOgv-mpRu-485" vertex="1">
          <mxGeometry x="35" width="60" height="30" as="geometry" />
        </mxCell>
        <mxCell id="g6qgAH0g6jWnOgv-mpRu-488" value="Oktató" style="shape=stencil(tZRtjoMgEIZPw98GJR6gYXfvQe10nZQCAbYft99RNKlW7GajiTGZeeXhnZGBCRka5YCVvGHig5VlwTm9Kb5NYhUc1DElr8qjOmhISojenuGGx9gz0DTgMbaq+GR8T9+0j5C1NYYgaE0YKU86wRQaWsvvCdZv/xhFjvgXiOB7kynLyq+/Y3fVNuBiI79j7OB+db/rgceOi61+3Grg4v9YISmTO9xCHlR9/vb2xxxnzYDW6AK8OfLTeZzO66ynzM5CnqyHBUsn1DqN9UITnWoH/kUY5Iu9PtVUzRY1jx4IGk22K9UioSs+44+uvFxl3bKX1nTZdE12iV8=);whiteSpace=wrap;html=1;" parent="1" vertex="1">
          <mxGeometry x="912.67" y="2120" width="120" height="80" as="geometry" />
        </mxCell>
        <mxCell id="g6qgAH0g6jWnOgv-mpRu-489" value="" style="endArrow=none;startArrow=classic;html=1;rounded=0;verticalAlign=bottom;entryX=0.55;entryY=1.123;entryDx=0;entryDy=0;entryPerimeter=0;endFill=0;" parent="1" source="g6qgAH0g6jWnOgv-mpRu-485" target="g6qgAH0g6jWnOgv-mpRu-471" edge="1">
          <mxGeometry width="50" height="50" relative="1" as="geometry">
            <mxPoint x="1392.67" y="2100" as="sourcePoint" />
            <mxPoint x="1302.67" y="2360" as="targetPoint" />
          </mxGeometry>
        </mxCell>
        <mxCell id="g6qgAH0g6jWnOgv-mpRu-490" value="" style="endArrow=classic;html=1;rounded=0;verticalAlign=bottom;exitX=1.005;exitY=0.576;exitDx=0;exitDy=0;exitPerimeter=0;" parent="1" source="g6qgAH0g6jWnOgv-mpRu-482" target="g6qgAH0g6jWnOgv-mpRu-471" edge="1">
          <mxGeometry width="50" height="50" relative="1" as="geometry">
            <mxPoint x="1102.67" y="2300" as="sourcePoint" />
            <mxPoint x="1222.67" y="2300" as="targetPoint" />
          </mxGeometry>
        </mxCell>
        <mxCell id="g6qgAH0g6jWnOgv-mpRu-491" value="" style="endArrow=classic;html=1;rounded=0;verticalAlign=bottom;exitX=1.005;exitY=0.619;exitDx=0;exitDy=0;exitPerimeter=0;entryX=-0.025;entryY=0;entryDx=0;entryDy=0;entryPerimeter=0;" parent="1" source="g6qgAH0g6jWnOgv-mpRu-479" target="g6qgAH0g6jWnOgv-mpRu-471" edge="1">
          <mxGeometry width="50" height="50" relative="1" as="geometry">
            <mxPoint x="1102.67" y="2300" as="sourcePoint" />
            <mxPoint x="1222.67" y="2300" as="targetPoint" />
          </mxGeometry>
        </mxCell>
        <mxCell id="g6qgAH0g6jWnOgv-mpRu-492" value="" style="endArrow=classic;html=1;rounded=0;verticalAlign=bottom;exitX=1.021;exitY=0.582;exitDx=0;exitDy=0;exitPerimeter=0;" parent="1" source="g6qgAH0g6jWnOgv-mpRu-476" target="g6qgAH0g6jWnOgv-mpRu-471" edge="1">
          <mxGeometry width="50" height="50" relative="1" as="geometry">
            <mxPoint x="1102.67" y="2090" as="sourcePoint" />
            <mxPoint x="1222.67" y="2090" as="targetPoint" />
          </mxGeometry>
        </mxCell>
        <mxCell id="g6qgAH0g6jWnOgv-mpRu-493" value="Vizsgák adatai,Terem kód, Tárgy kód" style="endArrow=none;html=1;rounded=0;verticalAlign=bottom;edgeStyle=orthogonalEdgeStyle;startArrow=classic;startFill=1;endFill=0;" parent="1" source="g6qgAH0g6jWnOgv-mpRu-482" target="g6qgAH0g6jWnOgv-mpRu-488" edge="1">
          <mxGeometry x="0.2023" y="3" width="50" height="50" relative="1" as="geometry">
            <mxPoint x="784.0985714285715" y="2340" as="sourcePoint" />
            <mxPoint x="1242.67" y="2100" as="targetPoint" />
            <Array as="points">
              <mxPoint x="1102.67" y="2179" />
              <mxPoint x="1102.67" y="2179" />
            </Array>
            <mxPoint as="offset" />
          </mxGeometry>
        </mxCell>
        <mxCell id="g6qgAH0g6jWnOgv-mpRu-494" value="Vizsgák adatai,Terem kód, Tárgy kód" style="endArrow=classic;html=1;rounded=0;verticalAlign=bottom;edgeStyle=orthogonalEdgeStyle;" parent="1" source="g6qgAH0g6jWnOgv-mpRu-485" target="g6qgAH0g6jWnOgv-mpRu-488" edge="1">
          <mxGeometry x="-0.1954" width="50" height="50" relative="1" as="geometry">
            <mxPoint x="1162.67" y="2220" as="sourcePoint" />
            <mxPoint x="792.3900000000002" y="2340.7200000000003" as="targetPoint" />
            <Array as="points">
              <mxPoint x="1002.67" y="2330" />
            </Array>
            <mxPoint x="1" as="offset" />
          </mxGeometry>
        </mxCell>
        <mxCell id="g6qgAH0g6jWnOgv-mpRu-495" value="Vizsgák adatai,Terem kód, Tárgy kód" style="endArrow=none;html=1;rounded=0;verticalAlign=bottom;edgeStyle=orthogonalEdgeStyle;startArrow=classic;startFill=1;exitX=-0.016;exitY=0.573;exitDx=0;exitDy=0;exitPerimeter=0;endFill=0;" parent="1" source="g6qgAH0g6jWnOgv-mpRu-479" target="g6qgAH0g6jWnOgv-mpRu-488" edge="1">
          <mxGeometry x="-0.0157" width="50" height="50" relative="1" as="geometry">
            <mxPoint x="1318.67" y="2177" as="sourcePoint" />
            <mxPoint x="1072.67" y="2177" as="targetPoint" />
            <Array as="points" />
            <mxPoint as="offset" />
          </mxGeometry>
        </mxCell>
        <mxCell id="g6qgAH0g6jWnOgv-mpRu-496" value="Vizsgák adatai,Terem kód, Tárgy kód" style="endArrow=none;html=1;rounded=0;verticalAlign=bottom;edgeStyle=orthogonalEdgeStyle;startArrow=classic;startFill=1;endFill=0;" parent="1" source="g6qgAH0g6jWnOgv-mpRu-476" target="g6qgAH0g6jWnOgv-mpRu-488" edge="1">
          <mxGeometry x="-0.2152" width="50" height="50" relative="1" as="geometry">
            <mxPoint x="1328.67" y="2187" as="sourcePoint" />
            <mxPoint x="1082.67" y="2187" as="targetPoint" />
            <Array as="points">
              <mxPoint x="932.67" y="1970" />
            </Array>
            <mxPoint x="-1" as="offset" />
          </mxGeometry>
        </mxCell>
        <mxCell id="g6qgAH0g6jWnOgv-mpRu-497" value="Felhasználó" style="shape=stencil(tZRtjoMgEIZPw98GJR6gYXfvQe10nZQCAbYft99RNKlW7GajiTGZeeXhnZGBCRka5YCVvGHig5VlwTm9Kb5NYhUc1DElr8qjOmhISojenuGGx9gz0DTgMbaq+GR8T9+0j5C1NYYgaE0YKU86wRQaWsvvCdZv/xhFjvgXiOB7kynLyq+/Y3fVNuBiI79j7OB+db/rgceOi61+3Grg4v9YISmTO9xCHlR9/vb2xxxnzYDW6AK8OfLTeZzO66ynzM5CnqyHBUsn1DqN9UITnWoH/kUY5Iu9PtVUzRY1jx4IGk22K9UioSs+44+uvFxl3bKX1nTZdE12iV8=);whiteSpace=wrap;html=1;" parent="1" vertex="1">
          <mxGeometry x="987.6699999999997" y="2570" width="120" height="80" as="geometry" />
        </mxCell>
        <mxCell id="g6qgAH0g6jWnOgv-mpRu-498" value="Felhasználó kód, jelszó" style="endArrow=classic;html=1;rounded=0;verticalAlign=bottom;" parent="1" source="g6qgAH0g6jWnOgv-mpRu-497" target="g6qgAH0g6jWnOgv-mpRu-502" edge="1">
          <mxGeometry width="50" height="50" relative="1" as="geometry">
            <mxPoint x="1577.67" y="2710" as="sourcePoint" />
            <mxPoint x="1267.6699999999996" y="2610" as="targetPoint" />
          </mxGeometry>
        </mxCell>
        <mxCell id="g6qgAH0g6jWnOgv-mpRu-499" value="Felhasználók" style="html=1;dashed=0;whitespace=wrap;shape=mxgraph.dfd.dataStoreID;align=left;spacingLeft=33;container=1;collapsible=0;autosize=0;flipH=0;" parent="1" vertex="1">
          <mxGeometry x="1507.67" y="2595" width="120" height="30" as="geometry" />
        </mxCell>
        <mxCell id="g6qgAH0g6jWnOgv-mpRu-500" value="L12" style="text;html=1;strokeColor=none;fillColor=none;align=center;verticalAlign=middle;whiteSpace=wrap;rounded=0;movable=0;resizable=0;rotatable=0;cloneable=0;deletable=0;allowArrows=0;connectable=0;" parent="g6qgAH0g6jWnOgv-mpRu-499" vertex="1">
          <mxGeometry width="30" height="30" as="geometry" />
        </mxCell>
        <mxCell id="g6qgAH0g6jWnOgv-mpRu-501" value="&lt;br&gt;" style="endArrow=classic;startArrow=classic;html=1;rounded=0;verticalAlign=bottom;entryX=-0.012;entryY=0.472;entryDx=0;entryDy=0;entryPerimeter=0;" parent="1" source="g6qgAH0g6jWnOgv-mpRu-502" target="g6qgAH0g6jWnOgv-mpRu-499" edge="1">
          <mxGeometry width="50" height="50" relative="1" as="geometry">
            <mxPoint x="1427.67" y="2608.5080645161297" as="sourcePoint" />
            <mxPoint x="1657.67" y="2710" as="targetPoint" />
          </mxGeometry>
        </mxCell>
        <mxCell id="g6qgAH0g6jWnOgv-mpRu-502" value="Bejelentkezés" style="html=1;dashed=0;whitespace=wrap;shape=mxgraph.dfd.process2;align=center;container=1;collapsible=0;spacingTop=30;" parent="1" vertex="1">
          <mxGeometry x="1297.67" y="2550" width="160" height="120" as="geometry" />
        </mxCell>
        <mxCell id="g6qgAH0g6jWnOgv-mpRu-503" value="7" style="text;html=1;strokeColor=none;fillColor=none;align=center;verticalAlign=middle;whiteSpace=wrap;rounded=0;connectable=0;allowArrows=0;editable=1;movable=0;resizable=0;rotatable=0;deletable=0;locked=0;cloneable=0;" parent="g6qgAH0g6jWnOgv-mpRu-502" vertex="1">
          <mxGeometry width="35" height="30" as="geometry" />
        </mxCell>
        <mxCell id="g6qgAH0g6jWnOgv-mpRu-504" value="Bejelentkezés" style="text;strokeColor=none;fillColor=none;align=left;verticalAlign=middle;whiteSpace=wrap;rounded=0;autosize=1;connectable=0;allowArrows=0;movable=0;resizable=0;rotatable=0;deletable=0;cloneable=0;spacingLeft=6;fontStyle=0;html=1;" parent="g6qgAH0g6jWnOgv-mpRu-502" vertex="1">
          <mxGeometry x="35" width="100" height="30" as="geometry" />
        </mxCell>
        <mxCell id="g6qgAH0g6jWnOgv-mpRu-554" value="Felvett vizsga" style="html=1;dashed=0;whitespace=wrap;shape=mxgraph.dfd.dataStoreID2;align=left;spacingLeft=38;container=1;collapsible=0;flipH=0;" parent="1" vertex="1">
          <mxGeometry x="1582.67" y="3030" width="120" height="30" as="geometry" />
        </mxCell>
        <mxCell id="g6qgAH0g6jWnOgv-mpRu-555" value="L13" style="text;html=1;strokeColor=none;fillColor=none;align=center;verticalAlign=middle;whiteSpace=wrap;rounded=0;connectable=0;allowArrows=0;movable=0;resizable=0;rotatable=0;cloneable=0;deletable=0;" parent="g6qgAH0g6jWnOgv-mpRu-554" vertex="1">
          <mxGeometry x="5" width="30" height="30" as="geometry" />
        </mxCell>
        <mxCell id="g6qgAH0g6jWnOgv-mpRu-556" value="" style="html=1;dashed=0;whitespace=wrap;shape=mxgraph.dfd.process;align=center;container=1;collapsible=0;spacingTop=30;" parent="1" vertex="1">
          <mxGeometry x="1242.67" y="2790" width="290" height="583.2906" as="geometry" />
        </mxCell>
        <mxCell id="g6qgAH0g6jWnOgv-mpRu-557" value="8" style="text;html=1;strokeColor=none;fillColor=none;align=center;verticalAlign=middle;whiteSpace=wrap;rounded=0;movable=0;resizable=0;rotatable=0;cloneable=0;deletable=0;connectable=0;allowArrows=0;pointerEvents=1;" parent="g6qgAH0g6jWnOgv-mpRu-556" vertex="1">
          <mxGeometry width="35" height="30" as="geometry" />
        </mxCell>
        <mxCell id="g6qgAH0g6jWnOgv-mpRu-558" value="Vizsák" style="text;html=1;strokeColor=none;fillColor=none;align=left;verticalAlign=middle;whiteSpace=wrap;rounded=0;movable=0;resizable=0;connectable=0;allowArrows=0;rotatable=0;cloneable=0;deletable=0;spacingLeft=6;autosize=1;resizeWidth=0;" parent="g6qgAH0g6jWnOgv-mpRu-556" vertex="1">
          <mxGeometry x="35" width="60" height="30" as="geometry" />
        </mxCell>
        <mxCell id="g6qgAH0g6jWnOgv-mpRu-559" value="Vizsga felvétele" style="html=1;dashed=0;whitespace=wrap;shape=mxgraph.dfd.process2;align=center;container=1;collapsible=0;spacingTop=30;" parent="g6qgAH0g6jWnOgv-mpRu-556" vertex="1">
          <mxGeometry x="65" y="49.99939999999999" width="160" height="73.2906" as="geometry" />
        </mxCell>
        <mxCell id="g6qgAH0g6jWnOgv-mpRu-560" value="8.1" style="text;html=1;strokeColor=none;fillColor=none;align=center;verticalAlign=middle;whiteSpace=wrap;rounded=0;connectable=0;allowArrows=0;editable=1;movable=0;resizable=0;rotatable=0;deletable=0;locked=0;cloneable=0;" parent="g6qgAH0g6jWnOgv-mpRu-559" vertex="1">
          <mxGeometry width="35" height="30" as="geometry" />
        </mxCell>
        <mxCell id="g6qgAH0g6jWnOgv-mpRu-561" value="Vizsgajelentkezés" style="text;strokeColor=none;fillColor=none;align=left;verticalAlign=middle;whiteSpace=wrap;rounded=0;autosize=1;connectable=0;allowArrows=0;movable=0;resizable=0;rotatable=0;deletable=0;cloneable=0;spacingLeft=6;fontStyle=0;html=1;" parent="g6qgAH0g6jWnOgv-mpRu-559" vertex="1">
          <mxGeometry x="35" width="120" height="30" as="geometry" />
        </mxCell>
        <mxCell id="g6qgAH0g6jWnOgv-mpRu-562" value="Vizsga leadás" style="html=1;dashed=0;whitespace=wrap;shape=mxgraph.dfd.process2;align=center;container=1;collapsible=0;spacingTop=30;" parent="g6qgAH0g6jWnOgv-mpRu-556" vertex="1">
          <mxGeometry x="65" y="218.34999999999994" width="160" height="73.2906" as="geometry" />
        </mxCell>
        <mxCell id="g6qgAH0g6jWnOgv-mpRu-563" value="8.2" style="text;html=1;strokeColor=none;fillColor=none;align=center;verticalAlign=middle;whiteSpace=wrap;rounded=0;connectable=0;allowArrows=0;editable=1;movable=0;resizable=0;rotatable=0;deletable=0;locked=0;cloneable=0;" parent="g6qgAH0g6jWnOgv-mpRu-562" vertex="1">
          <mxGeometry width="35" height="30" as="geometry" />
        </mxCell>
        <mxCell id="g6qgAH0g6jWnOgv-mpRu-564" value="Felvett vizsgák" style="text;strokeColor=none;fillColor=none;align=left;verticalAlign=middle;whiteSpace=wrap;rounded=0;autosize=1;connectable=0;allowArrows=0;movable=0;resizable=0;rotatable=0;deletable=0;cloneable=0;spacingLeft=6;fontStyle=0;html=1;" parent="g6qgAH0g6jWnOgv-mpRu-562" vertex="1">
          <mxGeometry x="35" width="110" height="30" as="geometry" />
        </mxCell>
        <mxCell id="g6qgAH0g6jWnOgv-mpRu-565" value="Vizsga adatainak kiíratása" style="html=1;dashed=0;whitespace=wrap;shape=mxgraph.dfd.process2;align=center;container=1;collapsible=0;spacingTop=30;" parent="g6qgAH0g6jWnOgv-mpRu-556" vertex="1">
          <mxGeometry x="65" y="349.99999999999994" width="160" height="73.2906" as="geometry" />
        </mxCell>
        <mxCell id="g6qgAH0g6jWnOgv-mpRu-566" value="8.3" style="text;html=1;strokeColor=none;fillColor=none;align=center;verticalAlign=middle;whiteSpace=wrap;rounded=0;connectable=0;allowArrows=0;editable=1;movable=0;resizable=0;rotatable=0;deletable=0;locked=0;cloneable=0;" parent="g6qgAH0g6jWnOgv-mpRu-565" vertex="1">
          <mxGeometry width="35" height="30" as="geometry" />
        </mxCell>
        <mxCell id="g6qgAH0g6jWnOgv-mpRu-567" value="Vizsga" style="text;strokeColor=none;fillColor=none;align=left;verticalAlign=middle;whiteSpace=wrap;rounded=0;autosize=1;connectable=0;allowArrows=0;movable=0;resizable=0;rotatable=0;deletable=0;cloneable=0;spacingLeft=6;fontStyle=0;html=1;" parent="g6qgAH0g6jWnOgv-mpRu-565" vertex="1">
          <mxGeometry x="35" width="60" height="30" as="geometry" />
        </mxCell>
        <mxCell id="g6qgAH0g6jWnOgv-mpRu-568" value="Hallgató" style="shape=stencil(tZRtjoMgEIZPw98GJR6gYXfvQe10nZQCAbYft99RNKlW7GajiTGZeeXhnZGBCRka5YCVvGHig5VlwTm9Kb5NYhUc1DElr8qjOmhISojenuGGx9gz0DTgMbaq+GR8T9+0j5C1NYYgaE0YKU86wRQaWsvvCdZv/xhFjvgXiOB7kynLyq+/Y3fVNuBiI79j7OB+db/rgceOi61+3Grg4v9YISmTO9xCHlR9/vb2xxxnzYDW6AK8OfLTeZzO66ynzM5CnqyHBUsn1DqN9UITnWoH/kUY5Iu9PtVUzRY1jx4IGk22K9UioSs+44+uvFxl3bKX1nTZdE12iV8=);whiteSpace=wrap;html=1;" parent="1" vertex="1">
          <mxGeometry x="942.67" y="3030" width="120" height="80" as="geometry" />
        </mxCell>
        <mxCell id="g6qgAH0g6jWnOgv-mpRu-569" value="" style="endArrow=none;startArrow=classic;html=1;rounded=0;verticalAlign=bottom;entryX=0.55;entryY=1.123;entryDx=0;entryDy=0;entryPerimeter=0;endFill=0;" parent="1" source="g6qgAH0g6jWnOgv-mpRu-565" target="g6qgAH0g6jWnOgv-mpRu-554" edge="1">
          <mxGeometry width="50" height="50" relative="1" as="geometry">
            <mxPoint x="1392.67" y="3020" as="sourcePoint" />
            <mxPoint x="1302.67" y="3280" as="targetPoint" />
          </mxGeometry>
        </mxCell>
        <mxCell id="g6qgAH0g6jWnOgv-mpRu-570" value="" style="endArrow=classic;html=1;rounded=0;verticalAlign=bottom;" parent="1" source="g6qgAH0g6jWnOgv-mpRu-559" target="g6qgAH0g6jWnOgv-mpRu-554" edge="1">
          <mxGeometry width="50" height="50" relative="1" as="geometry">
            <mxPoint x="1102.67" y="3010" as="sourcePoint" />
            <mxPoint x="1222.67" y="3010" as="targetPoint" />
          </mxGeometry>
        </mxCell>
        <mxCell id="g6qgAH0g6jWnOgv-mpRu-571" value="Felhasználó kód,Vizsga kód" style="endArrow=none;html=1;rounded=0;verticalAlign=bottom;edgeStyle=orthogonalEdgeStyle;startArrow=classic;startFill=1;exitX=0.005;exitY=0.645;exitDx=0;exitDy=0;exitPerimeter=0;endFill=0;" parent="1" source="g6qgAH0g6jWnOgv-mpRu-562" target="g6qgAH0g6jWnOgv-mpRu-568" edge="1">
          <mxGeometry x="0.2677" width="50" height="50" relative="1" as="geometry">
            <mxPoint x="784.0985714285715" y="3260" as="sourcePoint" />
            <mxPoint x="1242.67" y="3020" as="targetPoint" />
            <Array as="points">
              <mxPoint x="1212.67" y="3056" />
              <mxPoint x="1212.67" y="3056" />
            </Array>
            <mxPoint as="offset" />
          </mxGeometry>
        </mxCell>
        <mxCell id="g6qgAH0g6jWnOgv-mpRu-572" value="Vizsga információk" style="endArrow=classic;html=1;rounded=0;verticalAlign=bottom;edgeStyle=orthogonalEdgeStyle;exitX=0;exitY=0.579;exitDx=0;exitDy=0;exitPerimeter=0;" parent="1" source="g6qgAH0g6jWnOgv-mpRu-565" target="g6qgAH0g6jWnOgv-mpRu-568" edge="1">
          <mxGeometry x="-0.0171" width="50" height="50" relative="1" as="geometry">
            <mxPoint x="1162.67" y="3140" as="sourcePoint" />
            <mxPoint x="792.3900000000002" y="3260.7200000000003" as="targetPoint" />
            <Array as="points">
              <mxPoint x="1307.67" y="3190" />
              <mxPoint x="1002.67" y="3190" />
            </Array>
            <mxPoint as="offset" />
          </mxGeometry>
        </mxCell>
        <mxCell id="g6qgAH0g6jWnOgv-mpRu-573" value="Felhasználó kód,Vizsga kód" style="endArrow=none;html=1;rounded=0;verticalAlign=bottom;edgeStyle=orthogonalEdgeStyle;startArrow=classic;startFill=1;exitX=-0.005;exitY=0.685;exitDx=0;exitDy=0;exitPerimeter=0;endFill=0;" parent="1" source="g6qgAH0g6jWnOgv-mpRu-559" target="g6qgAH0g6jWnOgv-mpRu-568" edge="1">
          <mxGeometry x="-0.3071" width="50" height="50" relative="1" as="geometry">
            <mxPoint x="1328.67" y="3107" as="sourcePoint" />
            <mxPoint x="1082.67" y="3107" as="targetPoint" />
            <Array as="points">
              <mxPoint x="1007.67" y="2890" />
            </Array>
            <mxPoint as="offset" />
          </mxGeometry>
        </mxCell>
        <mxCell id="g6qgAH0g6jWnOgv-mpRu-574" value="" style="endArrow=classic;html=1;rounded=0;verticalAlign=bottom;exitX=0.39;exitY=0.067;exitDx=0;exitDy=0;exitPerimeter=0;entryX=0.995;entryY=0.55;entryDx=0;entryDy=0;entryPerimeter=0;" parent="1" source="g6qgAH0g6jWnOgv-mpRu-575" target="g6qgAH0g6jWnOgv-mpRu-565" edge="1">
          <mxGeometry width="50" height="50" relative="1" as="geometry">
            <mxPoint x="1625.9900000000002" y="3240.120000000001" as="sourcePoint" />
            <mxPoint x="1342.67" y="3220" as="targetPoint" />
          </mxGeometry>
        </mxCell>
        <mxCell id="g6qgAH0g6jWnOgv-mpRu-575" value="Vizsga" style="html=1;dashed=0;whitespace=wrap;shape=mxgraph.dfd.dataStoreID2;align=left;spacingLeft=38;container=1;collapsible=0;flipH=0;" parent="1" vertex="1">
          <mxGeometry x="1582.67" y="3183.29" width="120" height="30" as="geometry" />
        </mxCell>
        <mxCell id="g6qgAH0g6jWnOgv-mpRu-576" value="L11" style="text;html=1;strokeColor=none;fillColor=none;align=center;verticalAlign=middle;whiteSpace=wrap;rounded=0;connectable=0;allowArrows=0;movable=0;resizable=0;rotatable=0;cloneable=0;deletable=0;" parent="g6qgAH0g6jWnOgv-mpRu-575" vertex="1">
          <mxGeometry x="5" width="30" height="30" as="geometry" />
        </mxCell>
        <mxCell id="g6qgAH0g6jWnOgv-mpRu-577" value="" style="endArrow=classic;html=1;rounded=0;verticalAlign=bottom;" parent="1" source="g6qgAH0g6jWnOgv-mpRu-562" target="g6qgAH0g6jWnOgv-mpRu-554" edge="1">
          <mxGeometry width="50" height="50" relative="1" as="geometry">
            <mxPoint x="1222.67" y="3120" as="sourcePoint" />
            <mxPoint x="1342.67" y="3120" as="targetPoint" />
          </mxGeometry>
        </mxCell>
        <mxCell id="g6qgAH0g6jWnOgv-mpRu-590" value="Felvett kurzus" style="html=1;dashed=0;whitespace=wrap;shape=mxgraph.dfd.dataStoreID2;align=left;spacingLeft=38;container=1;collapsible=0;flipH=0;" parent="1" vertex="1">
          <mxGeometry x="1549.67" y="4670" width="120" height="30" as="geometry" />
        </mxCell>
        <mxCell id="g6qgAH0g6jWnOgv-mpRu-591" value="L14" style="text;html=1;strokeColor=none;fillColor=none;align=center;verticalAlign=middle;whiteSpace=wrap;rounded=0;connectable=0;allowArrows=0;movable=0;resizable=0;rotatable=0;cloneable=0;deletable=0;" parent="g6qgAH0g6jWnOgv-mpRu-590" vertex="1">
          <mxGeometry x="5" width="30" height="30" as="geometry" />
        </mxCell>
        <mxCell id="g6qgAH0g6jWnOgv-mpRu-592" value="" style="html=1;dashed=0;whitespace=wrap;shape=mxgraph.dfd.process;align=center;container=1;collapsible=0;spacingTop=30;" parent="1" vertex="1">
          <mxGeometry x="1209.67" y="4430" width="290" height="583.2906" as="geometry" />
        </mxCell>
        <mxCell id="g6qgAH0g6jWnOgv-mpRu-593" value="12" style="text;html=1;strokeColor=none;fillColor=none;align=center;verticalAlign=middle;whiteSpace=wrap;rounded=0;movable=0;resizable=0;rotatable=0;cloneable=0;deletable=0;connectable=0;allowArrows=0;pointerEvents=1;" parent="g6qgAH0g6jWnOgv-mpRu-592" vertex="1">
          <mxGeometry width="35" height="30" as="geometry" />
        </mxCell>
        <mxCell id="g6qgAH0g6jWnOgv-mpRu-594" value="Kurzusok" style="text;html=1;strokeColor=none;fillColor=none;align=left;verticalAlign=middle;whiteSpace=wrap;rounded=0;movable=0;resizable=0;connectable=0;allowArrows=0;rotatable=0;cloneable=0;deletable=0;spacingLeft=6;autosize=1;resizeWidth=0;" parent="g6qgAH0g6jWnOgv-mpRu-592" vertex="1">
          <mxGeometry x="35" width="80" height="30" as="geometry" />
        </mxCell>
        <mxCell id="g6qgAH0g6jWnOgv-mpRu-595" value="Érdemjegy módosítása" style="html=1;dashed=0;whitespace=wrap;shape=mxgraph.dfd.process2;align=center;container=1;collapsible=0;spacingTop=30;" parent="g6qgAH0g6jWnOgv-mpRu-592" vertex="1">
          <mxGeometry x="65" y="49.99939999999999" width="160" height="73.2906" as="geometry" />
        </mxCell>
        <mxCell id="g6qgAH0g6jWnOgv-mpRu-596" value="12.1" style="text;html=1;strokeColor=none;fillColor=none;align=center;verticalAlign=middle;whiteSpace=wrap;rounded=0;connectable=0;allowArrows=0;editable=1;movable=0;resizable=0;rotatable=0;deletable=0;locked=0;cloneable=0;" parent="g6qgAH0g6jWnOgv-mpRu-595" vertex="1">
          <mxGeometry width="35" height="30" as="geometry" />
        </mxCell>
        <mxCell id="g6qgAH0g6jWnOgv-mpRu-597" value="Kurzus" style="text;strokeColor=none;fillColor=none;align=left;verticalAlign=middle;whiteSpace=wrap;rounded=0;autosize=1;connectable=0;allowArrows=0;movable=0;resizable=0;rotatable=0;deletable=0;cloneable=0;spacingLeft=6;fontStyle=0;html=1;" parent="g6qgAH0g6jWnOgv-mpRu-595" vertex="1">
          <mxGeometry x="35" width="60" height="30" as="geometry" />
        </mxCell>
        <mxCell id="g6qgAH0g6jWnOgv-mpRu-598" value="Érdemjegy beítása" style="html=1;dashed=0;whitespace=wrap;shape=mxgraph.dfd.process2;align=center;container=1;collapsible=0;spacingTop=30;" parent="g6qgAH0g6jWnOgv-mpRu-592" vertex="1">
          <mxGeometry x="65" y="218.34999999999994" width="160" height="73.2906" as="geometry" />
        </mxCell>
        <mxCell id="g6qgAH0g6jWnOgv-mpRu-599" value="12.2" style="text;html=1;strokeColor=none;fillColor=none;align=center;verticalAlign=middle;whiteSpace=wrap;rounded=0;connectable=0;allowArrows=0;editable=1;movable=0;resizable=0;rotatable=0;deletable=0;locked=0;cloneable=0;" parent="g6qgAH0g6jWnOgv-mpRu-598" vertex="1">
          <mxGeometry width="35" height="30" as="geometry" />
        </mxCell>
        <mxCell id="g6qgAH0g6jWnOgv-mpRu-600" value="Kurzus" style="text;strokeColor=none;fillColor=none;align=left;verticalAlign=middle;whiteSpace=wrap;rounded=0;autosize=1;connectable=0;allowArrows=0;movable=0;resizable=0;rotatable=0;deletable=0;cloneable=0;spacingLeft=6;fontStyle=0;html=1;" parent="g6qgAH0g6jWnOgv-mpRu-598" vertex="1">
          <mxGeometry x="35" width="60" height="30" as="geometry" />
        </mxCell>
        <mxCell id="g6qgAH0g6jWnOgv-mpRu-601" value="Kurzus adatainak kiíratása" style="html=1;dashed=0;whitespace=wrap;shape=mxgraph.dfd.process2;align=center;container=1;collapsible=0;spacingTop=30;" parent="g6qgAH0g6jWnOgv-mpRu-592" vertex="1">
          <mxGeometry x="65" y="349.99999999999994" width="160" height="73.2906" as="geometry" />
        </mxCell>
        <mxCell id="g6qgAH0g6jWnOgv-mpRu-602" value="12.3" style="text;html=1;strokeColor=none;fillColor=none;align=center;verticalAlign=middle;whiteSpace=wrap;rounded=0;connectable=0;allowArrows=0;editable=1;movable=0;resizable=0;rotatable=0;deletable=0;locked=0;cloneable=0;" parent="g6qgAH0g6jWnOgv-mpRu-601" vertex="1">
          <mxGeometry width="35" height="30" as="geometry" />
        </mxCell>
        <mxCell id="g6qgAH0g6jWnOgv-mpRu-603" value="Kurzus" style="text;strokeColor=none;fillColor=none;align=left;verticalAlign=middle;whiteSpace=wrap;rounded=0;autosize=1;connectable=0;allowArrows=0;movable=0;resizable=0;rotatable=0;deletable=0;cloneable=0;spacingLeft=6;fontStyle=0;html=1;" parent="g6qgAH0g6jWnOgv-mpRu-601" vertex="1">
          <mxGeometry x="35" width="60" height="30" as="geometry" />
        </mxCell>
        <mxCell id="g6qgAH0g6jWnOgv-mpRu-604" value="Oktató" style="shape=stencil(tZRtjoMgEIZPw98GJR6gYXfvQe10nZQCAbYft99RNKlW7GajiTGZeeXhnZGBCRka5YCVvGHig5VlwTm9Kb5NYhUc1DElr8qjOmhISojenuGGx9gz0DTgMbaq+GR8T9+0j5C1NYYgaE0YKU86wRQaWsvvCdZv/xhFjvgXiOB7kynLyq+/Y3fVNuBiI79j7OB+db/rgceOi61+3Grg4v9YISmTO9xCHlR9/vb2xxxnzYDW6AK8OfLTeZzO66ynzM5CnqyHBUsn1DqN9UITnWoH/kUY5Iu9PtVUzRY1jx4IGk22K9UioSs+44+uvFxl3bKX1nTZdE12iV8=);whiteSpace=wrap;html=1;" parent="1" vertex="1">
          <mxGeometry x="909.67" y="4670" width="120" height="80" as="geometry" />
        </mxCell>
        <mxCell id="g6qgAH0g6jWnOgv-mpRu-605" value="" style="endArrow=none;startArrow=classic;html=1;rounded=0;verticalAlign=bottom;endFill=0;" parent="1" source="g6qgAH0g6jWnOgv-mpRu-601" edge="1">
          <mxGeometry width="50" height="50" relative="1" as="geometry">
            <mxPoint x="1359.67" y="4660" as="sourcePoint" />
            <mxPoint x="1609.67" y="4700" as="targetPoint" />
          </mxGeometry>
        </mxCell>
        <mxCell id="g6qgAH0g6jWnOgv-mpRu-606" value="" style="endArrow=classic;html=1;rounded=0;verticalAlign=bottom;exitX=1.021;exitY=0.582;exitDx=0;exitDy=0;exitPerimeter=0;" parent="1" source="g6qgAH0g6jWnOgv-mpRu-595" target="g6qgAH0g6jWnOgv-mpRu-590" edge="1">
          <mxGeometry width="50" height="50" relative="1" as="geometry">
            <mxPoint x="1069.67" y="4650" as="sourcePoint" />
            <mxPoint x="1189.67" y="4650" as="targetPoint" />
          </mxGeometry>
        </mxCell>
        <mxCell id="g6qgAH0g6jWnOgv-mpRu-607" value="Felhasználó kód, Kurzus kód" style="endArrow=none;html=1;rounded=0;verticalAlign=bottom;edgeStyle=orthogonalEdgeStyle;startArrow=classic;startFill=1;exitX=0.005;exitY=0.645;exitDx=0;exitDy=0;exitPerimeter=0;endFill=0;" parent="1" source="g6qgAH0g6jWnOgv-mpRu-598" target="g6qgAH0g6jWnOgv-mpRu-604" edge="1">
          <mxGeometry x="0.2677" width="50" height="50" relative="1" as="geometry">
            <mxPoint x="751.0985714285715" y="4900" as="sourcePoint" />
            <mxPoint x="1209.67" y="4660" as="targetPoint" />
            <Array as="points">
              <mxPoint x="1179.67" y="4696" />
              <mxPoint x="1179.67" y="4696" />
            </Array>
            <mxPoint as="offset" />
          </mxGeometry>
        </mxCell>
        <mxCell id="g6qgAH0g6jWnOgv-mpRu-608" value="Kurzus iformációk" style="endArrow=classic;html=1;rounded=0;verticalAlign=bottom;edgeStyle=orthogonalEdgeStyle;exitX=0;exitY=0.579;exitDx=0;exitDy=0;exitPerimeter=0;" parent="1" source="g6qgAH0g6jWnOgv-mpRu-601" target="g6qgAH0g6jWnOgv-mpRu-604" edge="1">
          <mxGeometry x="-0.0171" width="50" height="50" relative="1" as="geometry">
            <mxPoint x="1129.67" y="4780" as="sourcePoint" />
            <mxPoint x="759.3900000000002" y="4900.72" as="targetPoint" />
            <Array as="points">
              <mxPoint x="1274.67" y="4830" />
              <mxPoint x="969.67" y="4830" />
            </Array>
            <mxPoint as="offset" />
          </mxGeometry>
        </mxCell>
        <mxCell id="g6qgAH0g6jWnOgv-mpRu-609" value="Felhasználó kód, Kurzus kód" style="endArrow=none;html=1;rounded=0;verticalAlign=bottom;edgeStyle=orthogonalEdgeStyle;startArrow=classic;startFill=1;exitX=-0.005;exitY=0.685;exitDx=0;exitDy=0;exitPerimeter=0;endFill=0;" parent="1" source="g6qgAH0g6jWnOgv-mpRu-595" target="g6qgAH0g6jWnOgv-mpRu-604" edge="1">
          <mxGeometry x="-0.3071" width="50" height="50" relative="1" as="geometry">
            <mxPoint x="1295.67" y="4747" as="sourcePoint" />
            <mxPoint x="1049.67" y="4747" as="targetPoint" />
            <Array as="points">
              <mxPoint x="939.67" y="4530" />
            </Array>
            <mxPoint as="offset" />
          </mxGeometry>
        </mxCell>
        <mxCell id="g6qgAH0g6jWnOgv-mpRu-610" value="" style="endArrow=classic;html=1;rounded=0;verticalAlign=bottom;exitX=0.39;exitY=0.067;exitDx=0;exitDy=0;exitPerimeter=0;entryX=0.995;entryY=0.55;entryDx=0;entryDy=0;entryPerimeter=0;" parent="1" source="g6qgAH0g6jWnOgv-mpRu-611" target="g6qgAH0g6jWnOgv-mpRu-601" edge="1">
          <mxGeometry width="50" height="50" relative="1" as="geometry">
            <mxPoint x="1592.9900000000002" y="4880.120000000001" as="sourcePoint" />
            <mxPoint x="1309.67" y="4860" as="targetPoint" />
          </mxGeometry>
        </mxCell>
        <mxCell id="g6qgAH0g6jWnOgv-mpRu-611" value="Kurzus" style="html=1;dashed=0;whitespace=wrap;shape=mxgraph.dfd.dataStoreID2;align=left;spacingLeft=38;container=1;collapsible=0;flipH=0;" parent="1" vertex="1">
          <mxGeometry x="1559.58" y="4823.29" width="120" height="30" as="geometry" />
        </mxCell>
        <mxCell id="g6qgAH0g6jWnOgv-mpRu-612" value="L2" style="text;html=1;strokeColor=none;fillColor=none;align=center;verticalAlign=middle;whiteSpace=wrap;rounded=0;connectable=0;allowArrows=0;movable=0;resizable=0;rotatable=0;cloneable=0;deletable=0;" parent="g6qgAH0g6jWnOgv-mpRu-611" vertex="1">
          <mxGeometry x="5" width="30" height="30" as="geometry" />
        </mxCell>
        <mxCell id="g6qgAH0g6jWnOgv-mpRu-613" value="" style="endArrow=classic;html=1;rounded=0;verticalAlign=bottom;" parent="1" source="g6qgAH0g6jWnOgv-mpRu-598" target="g6qgAH0g6jWnOgv-mpRu-590" edge="1">
          <mxGeometry width="50" height="50" relative="1" as="geometry">
            <mxPoint x="1189.67" y="4760" as="sourcePoint" />
            <mxPoint x="1309.67" y="4760" as="targetPoint" />
          </mxGeometry>
        </mxCell>
        <mxCell id="g6qgAH0g6jWnOgv-mpRu-614" value="Felvett kurzus" style="html=1;dashed=0;whitespace=wrap;shape=mxgraph.dfd.dataStoreID2;align=left;spacingLeft=38;container=1;collapsible=0;flipH=0;" parent="1" vertex="1">
          <mxGeometry x="1567.67" y="3730" width="120" height="30" as="geometry" />
        </mxCell>
        <mxCell id="g6qgAH0g6jWnOgv-mpRu-615" value="L14" style="text;html=1;strokeColor=none;fillColor=none;align=center;verticalAlign=middle;whiteSpace=wrap;rounded=0;connectable=0;allowArrows=0;movable=0;resizable=0;rotatable=0;cloneable=0;deletable=0;" parent="g6qgAH0g6jWnOgv-mpRu-614" vertex="1">
          <mxGeometry x="5" width="30" height="30" as="geometry" />
        </mxCell>
        <mxCell id="g6qgAH0g6jWnOgv-mpRu-616" value="" style="html=1;dashed=0;whitespace=wrap;shape=mxgraph.dfd.process;align=center;container=1;collapsible=0;spacingTop=30;" parent="1" vertex="1">
          <mxGeometry x="1227.6699999999996" y="3490" width="290" height="583.2906" as="geometry" />
        </mxCell>
        <mxCell id="g6qgAH0g6jWnOgv-mpRu-617" value="9" style="text;html=1;strokeColor=none;fillColor=none;align=center;verticalAlign=middle;whiteSpace=wrap;rounded=0;movable=0;resizable=0;rotatable=0;cloneable=0;deletable=0;connectable=0;allowArrows=0;pointerEvents=1;" parent="g6qgAH0g6jWnOgv-mpRu-616" vertex="1">
          <mxGeometry width="35" height="30" as="geometry" />
        </mxCell>
        <mxCell id="g6qgAH0g6jWnOgv-mpRu-618" value="Kurzusok" style="text;html=1;strokeColor=none;fillColor=none;align=left;verticalAlign=middle;whiteSpace=wrap;rounded=0;movable=0;resizable=0;connectable=0;allowArrows=0;rotatable=0;cloneable=0;deletable=0;spacingLeft=6;autosize=1;resizeWidth=0;" parent="g6qgAH0g6jWnOgv-mpRu-616" vertex="1">
          <mxGeometry x="35" width="80" height="30" as="geometry" />
        </mxCell>
        <mxCell id="g6qgAH0g6jWnOgv-mpRu-619" value="Kurzus felvétele" style="html=1;dashed=0;whitespace=wrap;shape=mxgraph.dfd.process2;align=center;container=1;collapsible=0;spacingTop=30;" parent="g6qgAH0g6jWnOgv-mpRu-616" vertex="1">
          <mxGeometry x="65" y="49.99939999999999" width="160" height="73.2906" as="geometry" />
        </mxCell>
        <mxCell id="g6qgAH0g6jWnOgv-mpRu-620" value="9.1" style="text;html=1;strokeColor=none;fillColor=none;align=center;verticalAlign=middle;whiteSpace=wrap;rounded=0;connectable=0;allowArrows=0;editable=1;movable=0;resizable=0;rotatable=0;deletable=0;locked=0;cloneable=0;" parent="g6qgAH0g6jWnOgv-mpRu-619" vertex="1">
          <mxGeometry width="35" height="30" as="geometry" />
        </mxCell>
        <mxCell id="g6qgAH0g6jWnOgv-mpRu-621" value="Kurzusfelvétel" style="text;strokeColor=none;fillColor=none;align=left;verticalAlign=middle;whiteSpace=wrap;rounded=0;autosize=1;connectable=0;allowArrows=0;movable=0;resizable=0;rotatable=0;deletable=0;cloneable=0;spacingLeft=6;fontStyle=0;html=1;" parent="g6qgAH0g6jWnOgv-mpRu-619" vertex="1">
          <mxGeometry x="35" width="100" height="30" as="geometry" />
        </mxCell>
        <mxCell id="g6qgAH0g6jWnOgv-mpRu-622" value="Kurzus leadás" style="html=1;dashed=0;whitespace=wrap;shape=mxgraph.dfd.process2;align=center;container=1;collapsible=0;spacingTop=30;" parent="g6qgAH0g6jWnOgv-mpRu-616" vertex="1">
          <mxGeometry x="65" y="218.34999999999994" width="160" height="73.2906" as="geometry" />
        </mxCell>
        <mxCell id="g6qgAH0g6jWnOgv-mpRu-623" value="9.2" style="text;html=1;strokeColor=none;fillColor=none;align=center;verticalAlign=middle;whiteSpace=wrap;rounded=0;connectable=0;allowArrows=0;editable=1;movable=0;resizable=0;rotatable=0;deletable=0;locked=0;cloneable=0;" parent="g6qgAH0g6jWnOgv-mpRu-622" vertex="1">
          <mxGeometry width="35" height="30" as="geometry" />
        </mxCell>
        <mxCell id="g6qgAH0g6jWnOgv-mpRu-624" value="Felvett kurzusok" style="text;strokeColor=none;fillColor=none;align=left;verticalAlign=middle;whiteSpace=wrap;rounded=0;autosize=1;connectable=0;allowArrows=0;movable=0;resizable=0;rotatable=0;deletable=0;cloneable=0;spacingLeft=6;fontStyle=0;html=1;" parent="g6qgAH0g6jWnOgv-mpRu-622" vertex="1">
          <mxGeometry x="35" width="110" height="30" as="geometry" />
        </mxCell>
        <mxCell id="g6qgAH0g6jWnOgv-mpRu-625" value="Kurzus adatainak kiíratása" style="html=1;dashed=0;whitespace=wrap;shape=mxgraph.dfd.process2;align=center;container=1;collapsible=0;spacingTop=30;" parent="g6qgAH0g6jWnOgv-mpRu-616" vertex="1">
          <mxGeometry x="65" y="349.99999999999994" width="160" height="73.2906" as="geometry" />
        </mxCell>
        <mxCell id="g6qgAH0g6jWnOgv-mpRu-626" value="9.3" style="text;html=1;strokeColor=none;fillColor=none;align=center;verticalAlign=middle;whiteSpace=wrap;rounded=0;connectable=0;allowArrows=0;editable=1;movable=0;resizable=0;rotatable=0;deletable=0;locked=0;cloneable=0;" parent="g6qgAH0g6jWnOgv-mpRu-625" vertex="1">
          <mxGeometry width="35" height="30" as="geometry" />
        </mxCell>
        <mxCell id="g6qgAH0g6jWnOgv-mpRu-627" value="Kurzus" style="text;strokeColor=none;fillColor=none;align=left;verticalAlign=middle;whiteSpace=wrap;rounded=0;autosize=1;connectable=0;allowArrows=0;movable=0;resizable=0;rotatable=0;deletable=0;cloneable=0;spacingLeft=6;fontStyle=0;html=1;" parent="g6qgAH0g6jWnOgv-mpRu-625" vertex="1">
          <mxGeometry x="35" width="60" height="30" as="geometry" />
        </mxCell>
        <mxCell id="g6qgAH0g6jWnOgv-mpRu-628" value="Hallgató" style="shape=stencil(tZRtjoMgEIZPw98GJR6gYXfvQe10nZQCAbYft99RNKlW7GajiTGZeeXhnZGBCRka5YCVvGHig5VlwTm9Kb5NYhUc1DElr8qjOmhISojenuGGx9gz0DTgMbaq+GR8T9+0j5C1NYYgaE0YKU86wRQaWsvvCdZv/xhFjvgXiOB7kynLyq+/Y3fVNuBiI79j7OB+db/rgceOi61+3Grg4v9YISmTO9xCHlR9/vb2xxxnzYDW6AK8OfLTeZzO66ynzM5CnqyHBUsn1DqN9UITnWoH/kUY5Iu9PtVUzRY1jx4IGk22K9UioSs+44+uvFxl3bKX1nTZdE12iV8=);whiteSpace=wrap;html=1;" parent="1" vertex="1">
          <mxGeometry x="927.6699999999997" y="3730" width="120" height="80" as="geometry" />
        </mxCell>
        <mxCell id="g6qgAH0g6jWnOgv-mpRu-629" value="" style="endArrow=none;startArrow=classic;html=1;rounded=0;verticalAlign=bottom;entryX=0.55;entryY=1.123;entryDx=0;entryDy=0;entryPerimeter=0;endFill=0;" parent="1" source="g6qgAH0g6jWnOgv-mpRu-625" target="g6qgAH0g6jWnOgv-mpRu-614" edge="1">
          <mxGeometry width="50" height="50" relative="1" as="geometry">
            <mxPoint x="1377.67" y="3720" as="sourcePoint" />
            <mxPoint x="1287.67" y="3980" as="targetPoint" />
          </mxGeometry>
        </mxCell>
        <mxCell id="g6qgAH0g6jWnOgv-mpRu-630" value="" style="endArrow=classic;html=1;rounded=0;verticalAlign=bottom;exitX=1.021;exitY=0.582;exitDx=0;exitDy=0;exitPerimeter=0;" parent="1" source="g6qgAH0g6jWnOgv-mpRu-619" target="g6qgAH0g6jWnOgv-mpRu-614" edge="1">
          <mxGeometry width="50" height="50" relative="1" as="geometry">
            <mxPoint x="1087.6699999999996" y="3710" as="sourcePoint" />
            <mxPoint x="1207.6699999999996" y="3710" as="targetPoint" />
          </mxGeometry>
        </mxCell>
        <mxCell id="g6qgAH0g6jWnOgv-mpRu-631" value="Felhasználó kód, Kurzus kód" style="endArrow=none;html=1;rounded=0;verticalAlign=bottom;edgeStyle=orthogonalEdgeStyle;startArrow=classic;startFill=1;exitX=0.005;exitY=0.645;exitDx=0;exitDy=0;exitPerimeter=0;endFill=0;" parent="1" source="g6qgAH0g6jWnOgv-mpRu-622" target="g6qgAH0g6jWnOgv-mpRu-628" edge="1">
          <mxGeometry x="0.2677" width="50" height="50" relative="1" as="geometry">
            <mxPoint x="769.0985714285713" y="3960" as="sourcePoint" />
            <mxPoint x="1227.6699999999996" y="3720" as="targetPoint" />
            <Array as="points">
              <mxPoint x="1197.6699999999996" y="3756" />
              <mxPoint x="1197.6699999999996" y="3756" />
            </Array>
            <mxPoint as="offset" />
          </mxGeometry>
        </mxCell>
        <mxCell id="g6qgAH0g6jWnOgv-mpRu-632" value="Kurzus iformációk" style="endArrow=classic;html=1;rounded=0;verticalAlign=bottom;edgeStyle=orthogonalEdgeStyle;exitX=0;exitY=0.579;exitDx=0;exitDy=0;exitPerimeter=0;" parent="1" source="g6qgAH0g6jWnOgv-mpRu-625" target="g6qgAH0g6jWnOgv-mpRu-628" edge="1">
          <mxGeometry x="-0.0171" width="50" height="50" relative="1" as="geometry">
            <mxPoint x="1147.6699999999996" y="3840" as="sourcePoint" />
            <mxPoint x="777.39" y="3960.7200000000003" as="targetPoint" />
            <Array as="points">
              <mxPoint x="1292.67" y="3890" />
              <mxPoint x="987.6699999999997" y="3890" />
            </Array>
            <mxPoint as="offset" />
          </mxGeometry>
        </mxCell>
        <mxCell id="g6qgAH0g6jWnOgv-mpRu-633" value="Felhasználó kód, Kurzus kód" style="endArrow=none;html=1;rounded=0;verticalAlign=bottom;edgeStyle=orthogonalEdgeStyle;startArrow=classic;startFill=1;exitX=-0.005;exitY=0.685;exitDx=0;exitDy=0;exitPerimeter=0;endFill=0;" parent="1" source="g6qgAH0g6jWnOgv-mpRu-619" target="g6qgAH0g6jWnOgv-mpRu-628" edge="1">
          <mxGeometry x="-0.3071" width="50" height="50" relative="1" as="geometry">
            <mxPoint x="1313.67" y="3807" as="sourcePoint" />
            <mxPoint x="1067.6699999999996" y="3807" as="targetPoint" />
            <Array as="points">
              <mxPoint x="992.67" y="3590" />
            </Array>
            <mxPoint as="offset" />
          </mxGeometry>
        </mxCell>
        <mxCell id="g6qgAH0g6jWnOgv-mpRu-634" value="" style="endArrow=classic;html=1;rounded=0;verticalAlign=bottom;exitX=0.39;exitY=0.067;exitDx=0;exitDy=0;exitPerimeter=0;entryX=0.995;entryY=0.55;entryDx=0;entryDy=0;entryPerimeter=0;" parent="1" source="g6qgAH0g6jWnOgv-mpRu-635" target="g6qgAH0g6jWnOgv-mpRu-625" edge="1">
          <mxGeometry width="50" height="50" relative="1" as="geometry">
            <mxPoint x="1610.9900000000002" y="3940.120000000001" as="sourcePoint" />
            <mxPoint x="1327.67" y="3920" as="targetPoint" />
          </mxGeometry>
        </mxCell>
        <mxCell id="g6qgAH0g6jWnOgv-mpRu-635" value="Kurzus" style="html=1;dashed=0;whitespace=wrap;shape=mxgraph.dfd.dataStoreID2;align=left;spacingLeft=38;container=1;collapsible=0;flipH=0;" parent="1" vertex="1">
          <mxGeometry x="1567.67" y="3883.29" width="120" height="30" as="geometry" />
        </mxCell>
        <mxCell id="g6qgAH0g6jWnOgv-mpRu-636" value="L2" style="text;html=1;strokeColor=none;fillColor=none;align=center;verticalAlign=middle;whiteSpace=wrap;rounded=0;connectable=0;allowArrows=0;movable=0;resizable=0;rotatable=0;cloneable=0;deletable=0;" parent="g6qgAH0g6jWnOgv-mpRu-635" vertex="1">
          <mxGeometry x="5" width="30" height="30" as="geometry" />
        </mxCell>
        <mxCell id="g6qgAH0g6jWnOgv-mpRu-637" value="" style="endArrow=classic;html=1;rounded=0;verticalAlign=bottom;" parent="1" source="g6qgAH0g6jWnOgv-mpRu-622" target="g6qgAH0g6jWnOgv-mpRu-614" edge="1">
          <mxGeometry width="50" height="50" relative="1" as="geometry">
            <mxPoint x="1207.6699999999996" y="3820" as="sourcePoint" />
            <mxPoint x="1327.67" y="3820" as="targetPoint" />
          </mxGeometry>
        </mxCell>
        <mxCell id="g6qgAH0g6jWnOgv-mpRu-645" value="Üzenet olvasása" style="html=1;dashed=0;whitespace=wrap;shape=mxgraph.dfd.process2;align=center;container=1;collapsible=0;spacingTop=30;" parent="1" vertex="1">
          <mxGeometry x="1257.58" y="4200" width="175" height="120" as="geometry" />
        </mxCell>
        <mxCell id="g6qgAH0g6jWnOgv-mpRu-646" value="10" style="text;html=1;strokeColor=none;fillColor=none;align=center;verticalAlign=middle;whiteSpace=wrap;rounded=0;connectable=0;allowArrows=0;editable=1;movable=0;resizable=0;rotatable=0;deletable=0;locked=0;cloneable=0;" parent="g6qgAH0g6jWnOgv-mpRu-645" vertex="1">
          <mxGeometry width="35" height="30" as="geometry" />
        </mxCell>
        <mxCell id="g6qgAH0g6jWnOgv-mpRu-647" value="Beérkezett üzenetek" style="text;strokeColor=none;fillColor=none;align=left;verticalAlign=middle;whiteSpace=wrap;rounded=0;autosize=1;connectable=0;allowArrows=0;movable=0;resizable=0;rotatable=0;deletable=0;cloneable=0;spacingLeft=6;fontStyle=0;html=1;" parent="g6qgAH0g6jWnOgv-mpRu-645" vertex="1">
          <mxGeometry x="35" width="140" height="30" as="geometry" />
        </mxCell>
        <mxCell id="g6qgAH0g6jWnOgv-mpRu-648" value="Üzenet&amp;nbsp; információi" style="endArrow=classic;html=1;rounded=0;verticalAlign=bottom;exitX=-0.02;exitY=0.598;exitDx=0;exitDy=0;exitPerimeter=0;entryX=1;entryY=0.5;entryDx=0;entryDy=0;" parent="1" source="g6qgAH0g6jWnOgv-mpRu-645" target="g6qgAH0g6jWnOgv-mpRu-650" edge="1">
          <mxGeometry x="-0.0008" width="50" height="50" relative="1" as="geometry">
            <mxPoint x="1182.58" y="4250" as="sourcePoint" />
            <mxPoint x="962.58" y="4080" as="targetPoint" />
            <mxPoint as="offset" />
          </mxGeometry>
        </mxCell>
        <mxCell id="g6qgAH0g6jWnOgv-mpRu-649" value="" style="endArrow=classic;html=1;rounded=0;verticalAlign=bottom;exitX=0.004;exitY=0.539;exitDx=0;exitDy=0;exitPerimeter=0;" parent="1" source="g6qgAH0g6jWnOgv-mpRu-656" target="g6qgAH0g6jWnOgv-mpRu-645" edge="1">
          <mxGeometry width="50" height="50" relative="1" as="geometry">
            <mxPoint x="1182.58" y="4250" as="sourcePoint" />
            <mxPoint x="1302.58" y="4250" as="targetPoint" />
          </mxGeometry>
        </mxCell>
        <mxCell id="g6qgAH0g6jWnOgv-mpRu-650" value="Felhasználó" style="shape=stencil(tZRtjoMgEIZPw98GJR6gYXfvQe10nZQCAbYft99RNKlW7GajiTGZeeXhnZGBCRka5YCVvGHig5VlwTm9Kb5NYhUc1DElr8qjOmhISojenuGGx9gz0DTgMbaq+GR8T9+0j5C1NYYgaE0YKU86wRQaWsvvCdZv/xhFjvgXiOB7kynLyq+/Y3fVNuBiI79j7OB+db/rgceOi61+3Grg4v9YISmTO9xCHlR9/vb2xxxnzYDW6AK8OfLTeZzO66ynzM5CnqyHBUsn1DqN9UITnWoH/kUY5Iu9PtVUzRY1jx4IGk22K9UioSs+44+uvFxl3bKX1nTZdE12iV8=);whiteSpace=wrap;html=1;" parent="1" vertex="1">
          <mxGeometry x="942.58" y="4230" width="120" height="80" as="geometry" />
        </mxCell>
        <mxCell id="g6qgAH0g6jWnOgv-mpRu-656" value="Üzenet" style="html=1;dashed=0;whitespace=wrap;shape=mxgraph.dfd.dataStoreID2;align=left;spacingLeft=38;container=1;collapsible=0;flipH=0;" parent="1" vertex="1">
          <mxGeometry x="1482.58" y="4245" width="120" height="30" as="geometry" />
        </mxCell>
        <mxCell id="g6qgAH0g6jWnOgv-mpRu-657" value="L15" style="text;html=1;strokeColor=none;fillColor=none;align=center;verticalAlign=middle;whiteSpace=wrap;rounded=0;connectable=0;allowArrows=0;movable=0;resizable=0;rotatable=0;cloneable=0;deletable=0;" parent="g6qgAH0g6jWnOgv-mpRu-656" vertex="1">
          <mxGeometry x="5" width="30" height="30" as="geometry" />
        </mxCell>
        <mxCell id="g6qgAH0g6jWnOgv-mpRu-670" value="Milyen szakon" style="html=1;dashed=0;whitespace=wrap;shape=mxgraph.dfd.dataStoreID;align=left;spacingLeft=33;container=1;collapsible=0;autosize=0;" parent="1" vertex="1">
          <mxGeometry x="1579.67" y="1020" width="120" height="30" as="geometry" />
        </mxCell>
        <mxCell id="g6qgAH0g6jWnOgv-mpRu-671" value="L16" style="text;html=1;strokeColor=none;fillColor=none;align=center;verticalAlign=middle;whiteSpace=wrap;rounded=0;movable=0;resizable=0;rotatable=0;cloneable=0;deletable=0;allowArrows=0;connectable=0;" parent="g6qgAH0g6jWnOgv-mpRu-670" vertex="1">
          <mxGeometry width="30" height="30" as="geometry" />
        </mxCell>
        <mxCell id="g6qgAH0g6jWnOgv-mpRu-672" value="" style="endArrow=classic;html=1;rounded=0;verticalAlign=bottom;entryX=-0.027;entryY=0.5;entryDx=0;entryDy=0;entryPerimeter=0;" parent="1" source="g6qgAH0g6jWnOgv-mpRu-418" target="g6qgAH0g6jWnOgv-mpRu-670" edge="1">
          <mxGeometry width="50" height="50" relative="1" as="geometry">
            <mxPoint x="1499.67" y="1130" as="sourcePoint" />
            <mxPoint x="1619.67" y="1130" as="targetPoint" />
          </mxGeometry>
        </mxCell>
        <mxCell id="yjak-FnM3mctO0OfF4CP-45" value="" style="html=1;dashed=0;whitespace=wrap;shape=mxgraph.dfd.process;align=center;container=1;collapsible=0;spacingTop=30;" parent="1" vertex="1">
          <mxGeometry x="1199.67" y="5082" width="240" height="430" as="geometry" />
        </mxCell>
        <mxCell id="yjak-FnM3mctO0OfF4CP-46" value="13" style="text;html=1;strokeColor=none;fillColor=none;align=center;verticalAlign=middle;whiteSpace=wrap;rounded=0;movable=0;resizable=0;rotatable=0;cloneable=0;deletable=0;connectable=0;allowArrows=0;pointerEvents=1;" parent="yjak-FnM3mctO0OfF4CP-45" vertex="1">
          <mxGeometry width="35" height="30" as="geometry" />
        </mxCell>
        <mxCell id="yjak-FnM3mctO0OfF4CP-47" value="Szakok" style="text;html=1;strokeColor=none;fillColor=none;align=left;verticalAlign=middle;whiteSpace=wrap;rounded=0;movable=0;resizable=0;connectable=0;allowArrows=0;rotatable=0;cloneable=0;deletable=0;spacingLeft=6;autosize=1;resizeWidth=0;" parent="yjak-FnM3mctO0OfF4CP-45" vertex="1">
          <mxGeometry x="35" width="70" height="30" as="geometry" />
        </mxCell>
        <mxCell id="yjak-FnM3mctO0OfF4CP-48" value="Tanterv módosítása" style="html=1;dashed=0;whitespace=wrap;shape=mxgraph.dfd.process2;align=center;container=1;collapsible=0;spacingTop=30;" parent="1" vertex="1">
          <mxGeometry x="1235.58" y="5205.766233766233" width="175" height="59.22077922077922" as="geometry" />
        </mxCell>
        <mxCell id="yjak-FnM3mctO0OfF4CP-49" value="13.2" style="text;html=1;strokeColor=none;fillColor=none;align=center;verticalAlign=middle;whiteSpace=wrap;rounded=0;connectable=0;allowArrows=0;editable=1;movable=0;resizable=0;rotatable=0;deletable=0;locked=0;cloneable=0;" parent="yjak-FnM3mctO0OfF4CP-48" vertex="1">
          <mxGeometry width="35" height="30" as="geometry" />
        </mxCell>
        <mxCell id="yjak-FnM3mctO0OfF4CP-50" value="Tanterv szerkesztése" style="text;strokeColor=none;fillColor=none;align=left;verticalAlign=middle;whiteSpace=wrap;rounded=0;autosize=1;connectable=0;allowArrows=0;movable=0;resizable=0;rotatable=0;deletable=0;cloneable=0;spacingLeft=6;fontStyle=0;html=1;" parent="yjak-FnM3mctO0OfF4CP-48" vertex="1">
          <mxGeometry x="35" width="140" height="30" as="geometry" />
        </mxCell>
        <mxCell id="yjak-FnM3mctO0OfF4CP-51" value="Tanterv törlése" style="html=1;dashed=0;whitespace=wrap;shape=mxgraph.dfd.process2;align=center;container=1;collapsible=0;spacingTop=30;" parent="1" vertex="1">
          <mxGeometry x="1234.58" y="5274.727272727273" width="175" height="59.22077922077922" as="geometry" />
        </mxCell>
        <mxCell id="yjak-FnM3mctO0OfF4CP-52" value="13.3" style="text;html=1;strokeColor=none;fillColor=none;align=center;verticalAlign=middle;whiteSpace=wrap;rounded=0;connectable=0;allowArrows=0;editable=1;movable=0;resizable=0;rotatable=0;deletable=0;locked=0;cloneable=0;" parent="yjak-FnM3mctO0OfF4CP-51" vertex="1">
          <mxGeometry width="35" height="30" as="geometry" />
        </mxCell>
        <mxCell id="yjak-FnM3mctO0OfF4CP-53" value="Tanterv szerkesztése" style="text;strokeColor=none;fillColor=none;align=left;verticalAlign=middle;whiteSpace=wrap;rounded=0;autosize=1;connectable=0;allowArrows=0;movable=0;resizable=0;rotatable=0;deletable=0;cloneable=0;spacingLeft=6;fontStyle=0;html=1;" parent="yjak-FnM3mctO0OfF4CP-51" vertex="1">
          <mxGeometry x="35" width="140" height="30" as="geometry" />
        </mxCell>
        <mxCell id="yjak-FnM3mctO0OfF4CP-54" value="" style="endArrow=classic;startArrow=none;html=1;rounded=0;verticalAlign=bottom;startFill=0;exitX=1.005;exitY=0.495;exitDx=0;exitDy=0;exitPerimeter=0;" parent="1" source="yjak-FnM3mctO0OfF4CP-51" target="yjak-FnM3mctO0OfF4CP-73" edge="1">
          <mxGeometry width="50" height="50" relative="1" as="geometry">
            <mxPoint x="419.5799999999998" y="5052" as="sourcePoint" />
            <mxPoint x="1469.67" y="5282" as="targetPoint" />
          </mxGeometry>
        </mxCell>
        <mxCell id="yjak-FnM3mctO0OfF4CP-55" value="tanterv adatai" style="endArrow=classic;html=1;rounded=0;verticalAlign=bottom;" parent="1" source="yjak-FnM3mctO0OfF4CP-69" target="yjak-FnM3mctO0OfF4CP-63" edge="1">
          <mxGeometry x="0.1978" y="1" width="50" height="50" relative="1" as="geometry">
            <mxPoint x="259.5799999999998" y="5182" as="sourcePoint" />
            <mxPoint x="274.5799999999998" y="5197" as="targetPoint" />
            <mxPoint as="offset" />
          </mxGeometry>
        </mxCell>
        <mxCell id="yjak-FnM3mctO0OfF4CP-56" value="tanterv adatai" style="endArrow=classic;html=1;rounded=0;verticalAlign=bottom;" parent="1" source="yjak-FnM3mctO0OfF4CP-69" target="yjak-FnM3mctO0OfF4CP-48" edge="1">
          <mxGeometry x="0.1978" y="1" width="50" height="50" relative="1" as="geometry">
            <mxPoint x="599.67" y="5273" as="sourcePoint" />
            <mxPoint x="284.5799999999998" y="5207" as="targetPoint" />
            <mxPoint as="offset" />
          </mxGeometry>
        </mxCell>
        <mxCell id="yjak-FnM3mctO0OfF4CP-57" value="tanterv adatai" style="endArrow=classic;html=1;rounded=0;verticalAlign=bottom;" parent="1" source="yjak-FnM3mctO0OfF4CP-69" target="yjak-FnM3mctO0OfF4CP-51" edge="1">
          <mxGeometry x="0.1978" y="1" width="50" height="50" relative="1" as="geometry">
            <mxPoint x="-80.42000000000019" y="5072" as="sourcePoint" />
            <mxPoint x="294.5799999999998" y="5217" as="targetPoint" />
            <mxPoint as="offset" />
          </mxGeometry>
        </mxCell>
        <mxCell id="yjak-FnM3mctO0OfF4CP-58" value="" style="endArrow=classic;html=1;rounded=0;verticalAlign=bottom;" parent="1" source="yjak-FnM3mctO0OfF4CP-63" target="yjak-FnM3mctO0OfF4CP-73" edge="1">
          <mxGeometry width="50" height="50" relative="1" as="geometry">
            <mxPoint x="904.5799999999998" y="5178.942530769085" as="sourcePoint" />
            <mxPoint x="1499.67" y="5212" as="targetPoint" />
          </mxGeometry>
        </mxCell>
        <mxCell id="yjak-FnM3mctO0OfF4CP-59" value="Szak" style="html=1;dashed=0;whitespace=wrap;shape=mxgraph.dfd.dataStoreID2;align=left;spacingLeft=38;container=1;collapsible=0;" parent="1" vertex="1">
          <mxGeometry x="1519.67" y="5363.23" width="120" height="30" as="geometry" />
        </mxCell>
        <mxCell id="yjak-FnM3mctO0OfF4CP-60" value="L3" style="text;html=1;strokeColor=none;fillColor=none;align=center;verticalAlign=middle;whiteSpace=wrap;rounded=0;connectable=0;allowArrows=0;movable=0;resizable=0;rotatable=0;cloneable=0;deletable=0;" parent="yjak-FnM3mctO0OfF4CP-59" vertex="1">
          <mxGeometry x="5" width="30" height="30" as="geometry" />
        </mxCell>
        <mxCell id="yjak-FnM3mctO0OfF4CP-61" value="" style="endArrow=classic;html=1;rounded=0;verticalAlign=bottom;" parent="1" source="yjak-FnM3mctO0OfF4CP-70" target="yjak-FnM3mctO0OfF4CP-59" edge="1">
          <mxGeometry width="50" height="50" relative="1" as="geometry">
            <mxPoint x="904.5799999999998" y="5434.121212121212" as="sourcePoint" />
            <mxPoint x="919.5799999999998" y="5322" as="targetPoint" />
          </mxGeometry>
        </mxCell>
        <mxCell id="yjak-FnM3mctO0OfF4CP-62" value="Szak adatai&amp;nbsp;" style="endArrow=classic;html=1;rounded=0;verticalAlign=bottom;" parent="1" source="yjak-FnM3mctO0OfF4CP-69" target="yjak-FnM3mctO0OfF4CP-70" edge="1">
          <mxGeometry width="50" height="50" relative="1" as="geometry">
            <mxPoint x="329.5799999999998" y="5112" as="sourcePoint" />
            <mxPoint x="274.5799999999998" y="5455" as="targetPoint" />
          </mxGeometry>
        </mxCell>
        <mxCell id="yjak-FnM3mctO0OfF4CP-63" value="Tanterv Létrehozása&lt;br&gt;" style="html=1;dashed=0;whitespace=wrap;shape=mxgraph.dfd.process2;align=center;container=1;collapsible=0;spacingTop=30;" parent="1" vertex="1">
          <mxGeometry x="1234.58" y="5128.433766233766" width="160" height="67.46233766233766" as="geometry" />
        </mxCell>
        <mxCell id="yjak-FnM3mctO0OfF4CP-64" value="13.1" style="text;html=1;strokeColor=none;fillColor=none;align=center;verticalAlign=middle;whiteSpace=wrap;rounded=0;connectable=0;allowArrows=0;editable=1;movable=0;resizable=0;rotatable=0;deletable=0;locked=0;cloneable=0;" parent="yjak-FnM3mctO0OfF4CP-63" vertex="1">
          <mxGeometry width="35" height="30" as="geometry" />
        </mxCell>
        <mxCell id="yjak-FnM3mctO0OfF4CP-65" value="Új tanterv" style="text;strokeColor=none;fillColor=none;align=left;verticalAlign=middle;whiteSpace=wrap;rounded=0;autosize=1;connectable=0;allowArrows=0;movable=0;resizable=0;rotatable=0;deletable=0;cloneable=0;spacingLeft=6;fontStyle=0;html=1;" parent="yjak-FnM3mctO0OfF4CP-63" vertex="1">
          <mxGeometry x="35" width="80" height="30" as="geometry" />
        </mxCell>
        <mxCell id="yjak-FnM3mctO0OfF4CP-68" style="rounded=0;orthogonalLoop=1;jettySize=auto;html=1;" parent="1" source="yjak-FnM3mctO0OfF4CP-48" target="yjak-FnM3mctO0OfF4CP-73" edge="1">
          <mxGeometry relative="1" as="geometry" />
        </mxCell>
        <mxCell id="yjak-FnM3mctO0OfF4CP-69" value="Admin" style="shape=stencil(tZRtjoMgEIZPw98GJR6gYXfvQe10nZQCAbYft99RNKlW7GajiTGZeeXhnZGBCRka5YCVvGHig5VlwTm9Kb5NYhUc1DElr8qjOmhISojenuGGx9gz0DTgMbaq+GR8T9+0j5C1NYYgaE0YKU86wRQaWsvvCdZv/xhFjvgXiOB7kynLyq+/Y3fVNuBiI79j7OB+db/rgceOi61+3Grg4v9YISmTO9xCHlR9/vb2xxxnzYDW6AK8OfLTeZzO66ynzM5CnqyHBUsn1DqN9UITnWoH/kUY5Iu9PtVUzRY1jx4IGk22K9UioSs+44+uvFxl3bKX1nTZdE12iV8=);whiteSpace=wrap;html=1;" parent="1" vertex="1">
          <mxGeometry x="909.67" y="5220.38" width="120" height="80" as="geometry" />
        </mxCell>
        <mxCell id="yjak-FnM3mctO0OfF4CP-70" value="Szak létrehozása" style="html=1;dashed=0;whitespace=wrap;shape=mxgraph.dfd.process2;align=center;container=1;collapsible=0;spacingTop=30;" parent="1" vertex="1">
          <mxGeometry x="1234.58" y="5343.688311688312" width="160" height="69.0909090909091" as="geometry" />
        </mxCell>
        <mxCell id="yjak-FnM3mctO0OfF4CP-71" value="13.4" style="text;html=1;strokeColor=none;fillColor=none;align=center;verticalAlign=middle;whiteSpace=wrap;rounded=0;connectable=0;allowArrows=0;editable=1;movable=0;resizable=0;rotatable=0;deletable=0;locked=0;cloneable=0;" parent="yjak-FnM3mctO0OfF4CP-70" vertex="1">
          <mxGeometry width="35" height="30" as="geometry" />
        </mxCell>
        <mxCell id="yjak-FnM3mctO0OfF4CP-72" value="Új szak" style="text;strokeColor=none;fillColor=none;align=left;verticalAlign=middle;whiteSpace=wrap;rounded=0;autosize=1;connectable=0;allowArrows=0;movable=0;resizable=0;rotatable=0;deletable=0;cloneable=0;spacingLeft=6;fontStyle=0;html=1;" parent="yjak-FnM3mctO0OfF4CP-70" vertex="1">
          <mxGeometry x="35" width="70" height="30" as="geometry" />
        </mxCell>
        <mxCell id="yjak-FnM3mctO0OfF4CP-73" value="Tanterv" style="html=1;dashed=0;whitespace=wrap;shape=mxgraph.dfd.dataStoreID2;align=left;spacingLeft=38;container=1;collapsible=0;" parent="1" vertex="1">
          <mxGeometry x="1534.67" y="5220.38" width="120" height="30" as="geometry" />
        </mxCell>
        <mxCell id="yjak-FnM3mctO0OfF4CP-74" value="L5" style="text;html=1;strokeColor=none;fillColor=none;align=center;verticalAlign=middle;whiteSpace=wrap;rounded=0;connectable=0;allowArrows=0;movable=0;resizable=0;rotatable=0;cloneable=0;deletable=0;" parent="yjak-FnM3mctO0OfF4CP-73" vertex="1">
          <mxGeometry x="5" width="30" height="30" as="geometry" />
        </mxCell>
      </root>
    </mxGraphModel>
  </diagram>
</mxfile>
